<svg width="576" height="548" viewBox="0 0 576 548" fill="none" xmlns="http://www.w3.org/2000/svg">
<g clip-path="url(#clip0_82_2)" filter="url(#filter0_d_82_2)">
<path d="M162.624 35.4502C156.669 40.1681 144.243 49.1442 139.014 52.4258C132.068 56.8437 128.022 59.0766 122.071 61.854C114.172 65.4799 107.434 69.0191 102.691 71.9144C100.392 73.3483 98.4156 74.4621 98.3028 74.4122C98.0772 74.3124 100.682 69.5453 103.669 64.624C104.98 62.4754 106.113 60.5256 106.216 60.2935C106.318 60.0615 106.862 60.2558 107.545 60.7433C109.442 62.0453 111.24 62.1475 114.089 61.0958C117.029 60.0387 120.508 57.9708 120.34 57.4343C120.016 56.6433 115.467 54.6297 113.293 54.3611C112.048 54.2265 110.985 53.9872 110.907 53.86C110.722 53.3622 117.811 45.6772 120.595 43.3484C123.075 41.3011 123.605 40.6108 124.334 38.7599C124.81 37.5831 125.102 36.4171 125.037 36.1571C124.75 35.3827 111.273 47.5471 107.311 52.1298C106.387 53.2009 105.529 54.0233 105.378 53.9568C104.664 53.6406 102.798 46.4786 102.697 43.659C102.603 40.5187 102.637 40.4414 105.054 35.0825C107.16 30.3257 109.72 25.8626 111.146 24.3666C111.54 23.9857 111.29 23.7365 109.937 23.1375C108.245 22.3886 108.228 22.4273 107.386 23.7197C105.281 26.9506 100.732 36.3144 99.441 40.0441C97.4136 45.9454 97.1926 49.5938 98.5147 57.0701C98.8519 59.2543 99.0662 61.1066 98.9192 61.134C98.755 61.2001 98.2699 60.5692 97.8328 59.7282C96.9381 57.991 93.5934 53.9669 92.4759 53.241C91.8505 52.8254 91.6897 52.9855 91.0322 54.7757C88.94 60.417 89.9928 66.5717 93.3014 68.0361C94.1661 68.4188 94.2859 68.1481 91.4564 71.7981L90.3068 73.278L89.9558 71.2265C89.4719 68.5611 87.194 64.3617 84.2696 60.7086C82.4316 58.4614 81.8576 57.9298 81.4061 58.2387C80.5203 58.8179 78.3388 65.0672 77.9369 68.3117C77.2773 73.6622 79.0013 77.8939 82.5731 79.4748C83.5506 79.9075 84.2546 80.4503 84.169 80.6437C83.8609 81.3398 81.8429 82.8516 77.4138 85.7474C68.2477 91.7264 62.0598 97.1737 56.7223 104.154L53.8209 107.864L52.9601 106.558C52.4921 105.889 52.007 105.258 51.9318 105.224C51.819 105.175 51.2817 106.185 50.7168 107.462C49.7925 109.55 49.7307 109.893 50.4243 110.662C50.9641 111.271 51.0424 111.907 50.6622 113.172C47.7777 123.042 44.4603 130.638 40.8642 135.614C38.7153 138.64 37.8836 140.215 35.5967 145.585C33.9773 149.447 32.7513 152.928 32.5043 154.298C32.0926 156.752 32.1079 159.765 32.5585 160.982C32.6847 161.408 31.7488 165.758 30.5186 170.67L28.1919 179.584L26.872 179.925C22.8748 180.931 20.2418 181.8 18.7336 182.566C15.7206 184.193 9.33224 193.344 4.62229 202.868C2.50007 207.154 2.04464 208.387 1.35539 211.874C-0.29727 219.976 -1.62321 224.8 -4.05779 231.215C-9.11189 244.564 -21.5123 273.901 -27.3556 286.392C-37.5635 308.236 -48.5221 333.401 -48.5059 334.889C-48.4459 337.597 -48.5211 337.564 -28.2796 345.876C-9.61374 353.583 -0.480592 357.024 0.340128 356.693C0.558987 356.605 2.31369 343.6 4.2273 327.797C6.10331 311.977 8.73854 289.973 10.0614 278.857C11.4218 267.759 13.0954 253.006 13.8653 246.086C16.7872 219.167 17.1439 217.243 20.9742 209.504C25.5952 200.079 28.4165 198.784 42.0332 199.816C60.6959 201.232 83.8349 206.756 98.7611 213.363C107.07 217.04 115.05 222.376 118.986 226.893C121.166 229.384 124.899 235.476 126.589 239.277L127.716 241.81L126.232 242.217C124.546 242.674 122.842 244.186 122.038 246.003C121.456 247.318 120.753 250.938 120.615 253.282L120.532 254.587L122.594 253.788C124.93 252.88 127.741 250.794 129.011 249.043C129.945 247.746 130.29 248.083 130.791 250.71L131.064 252.126L129.723 252.92C127.838 254.028 126.695 256.713 126.737 259.97C126.769 263.961 129.407 272.02 130.519 271.541C131.702 271 134.966 266.572 136.216 263.748C137.842 260.075 138.158 258.041 137.503 255.762C136.977 254.003 134.978 251.916 133.447 251.516C132.979 251.355 132.245 249.457 131.327 246.045L129.88 240.78L131.891 241.114C134.031 241.46 137.596 241.328 139.375 240.866C140.236 240.646 140.342 240.508 139.99 239.982C139.184 238.654 140.353 239.264 145.1 242.66C161.596 254.355 168.163 261.563 174.121 274.513L176.047 278.696L174.747 279.092C172.788 279.658 171.806 280.657 170.694 283.171C169.701 285.414 168.812 291.079 169.414 291.346C169.79 291.512 174.006 289.401 175.227 288.369C175.768 287.961 176.661 287.061 177.263 286.31L178.344 284.985L179.852 289.907C181.378 294.791 181.476 295.482 180.574 295.592C179.801 295.712 177.987 298.286 177.617 299.833C176.695 303.541 180.473 309.329 186.877 314.06C187.752 314.725 187.807 314.703 188.198 313.211C190.01 306.983 189.549 300.813 187.034 297.757C186.358 296.949 185.497 296.152 185.083 295.969C184.669 295.786 184.106 295.027 183.877 294.325C183.399 292.865 183.362 292.848 186.421 293.555C188.267 293.956 192.079 293.978 192.25 293.591C192.49 293.05 190.612 289.675 189.242 288.097C187.468 286.11 184.139 284.59 182.453 285.046L181.171 285.404L179.792 281.51L178.396 277.654L180.549 278.885C187.33 282.765 194.244 286.241 202.048 289.741C211.597 293.968 212.196 294.141 232.042 299.179C250.601 303.878 266.811 307.075 272.886 307.267L275.775 307.343L279.52 310.666C291.617 321.431 306.613 331.028 316.614 334.437L320.679 335.82L322.01 338.398C323.68 341.635 326.652 346.095 328.897 348.846C330.308 350.534 330.509 350.994 330.03 351.568C328.272 353.611 327.782 354.92 327.815 357.386C327.776 359.912 329.407 365.167 331.002 367.861L331.811 369.283L333.036 367.837C333.71 367.025 335.1 364.495 336.195 362.02C337.838 358.307 338.17 357.761 338.573 358.17C338.823 358.419 340.528 359.544 342.305 360.608L345.614 362.581L344.738 363.951C341.285 369.314 344.676 375.162 354.318 380.401L357.356 382.07L357.589 380.832C358.107 378.24 357.649 372.672 356.632 369.586L355.574 366.389L357.379 366.679C358.384 366.846 359.779 367.047 360.541 367.153C361.638 367.315 361.925 367.581 362.297 368.671C362.98 370.684 365.43 373.48 367.272 374.295C371.596 376.209 378.574 374.765 386.926 370.322C389.72 368.784 389.72 368.784 389.009 368.053C387.438 366.525 383.101 363.726 380.281 362.478C372.987 359.25 366.734 359.766 363.476 363.874C362.573 365 362.262 365.094 360.03 364.753C356.888 364.334 351.203 362.65 349.242 361.597L347.676 360.766L350.042 360.194C353.216 359.425 357.073 357.109 361.383 353.466C363.357 351.75 365.006 350.26 365.074 350.105C365.314 349.564 360.04 347.461 356.741 346.787C348.537 345.006 342.118 347.113 339.808 352.334C339.157 353.804 338.767 354.279 338.391 354.112C336.737 353.38 329.096 341.997 329.558 340.953C329.643 340.759 333.921 340.34 339.124 339.961C347.06 339.403 354.028 338.695 362.61 337.591L364.34 337.339L364.072 338.654C363.695 340.522 364.89 343.41 366.923 345.42C368.765 347.253 375.091 351.347 375.71 351.066C376.366 350.802 375.957 344.007 375.124 341.419C374.667 340.014 373.751 338.221 373.02 337.435L371.746 335.946L376.407 334.864C378.974 334.243 381.197 333.793 381.327 333.804C381.477 333.871 381.374 334.611 381.165 335.49C380.247 338.784 381.629 342.772 384.783 346.11C386.396 347.749 387.076 348.142 393.296 350.849C400.173 353.801 406.227 355.463 407.011 354.607C407.455 354.11 406.054 348.032 404.589 344.332C402.22 338.103 398.79 333.764 394.412 331.364C393.018 330.654 391.975 329.961 392.01 329.884C392.044 329.807 393.039 329.183 394.199 328.494C396.339 327.314 396.339 327.314 398.763 328.341C400.715 329.112 401.59 329.268 403.152 328.988C406.92 328.297 410.426 325.455 414.047 320.121C415.788 317.608 417.972 313.487 417.671 313.354C417.596 313.32 416.704 313.203 415.627 313.096C406.581 312.099 398.015 315.198 395.697 320.231C395.27 321.198 394.934 322.668 394.981 323.475C395.052 324.941 395.035 324.979 392.805 326.258C389.306 328.271 385.12 330.211 383.106 330.799L381.257 331.322L382.605 328.173C383.376 326.432 384.188 323.786 384.428 322.227C384.96 318.994 384.981 311.834 384.455 311.601C383.778 311.302 377.201 315.19 374.69 317.408C372.501 319.307 371.83 320.212 370.499 322.814C368.51 326.698 368.437 329.301 370.114 332.217L371.238 334.148L368.441 334.576C363.842 335.315 361.096 335.626 361.032 335.366C360.991 335.255 361.555 334.488 362.267 333.693C364.172 331.623 366.747 324.992 367.228 320.858C367.802 316.209 367.829 310.255 367.341 310.039C367.077 309.923 365.234 310.633 363.288 311.575C351.562 317.346 345.905 325.757 348.691 333.28L349.674 335.935L341.858 335.713C328.744 335.274 327.459 335.029 319.272 331.683C306.653 326.467 294.838 319.434 289.009 313.709C287.167 311.877 285.131 309.264 285.285 308.916C285.337 308.8 288.178 308.578 291.597 308.472C300.466 308.143 310.989 307.02 319.168 305.506C327.788 303.91 335.619 300.947 343.971 295.995C353.92 290.178 354.248 290.046 359.208 291.131C362.565 291.877 382.208 301.033 389.255 305.124C395.188 308.582 399.252 310.474 401.577 310.809C405.539 311.406 411.946 310.542 423.544 307.906C428.591 306.764 429.296 306.798 439.886 309.08C447.642 310.756 452.011 312.366 453.329 314.059C453.756 314.618 454.61 316.753 455.238 318.789C456.367 322.434 456.371 322.528 455.365 322.869C452.349 323.893 450.172 328.202 450.494 332.553C450.782 336.981 454.794 347.22 456.052 346.714C456.78 346.389 459.552 342.667 461.065 339.96C462.3 337.778 463.602 333.313 463.72 330.914C463.754 330.328 464.014 330.351 465.244 331.126L466.758 332.074L465.868 334.085C464.026 338.45 466.769 342.716 473.895 346.425L477.101 348.122L477.249 347.077C477.496 345.198 477.282 342.328 476.686 339.613L476.13 337.008L478.881 337.902C481.127 338.619 481.695 338.962 481.998 339.698C482.661 341.148 484.557 342.958 486.287 343.724C488.43 344.672 492.492 344.435 496.403 343.114C499.895 341.931 506.861 338.077 506.598 337.452C506.295 336.716 501.999 334.028 499.066 332.73C494.103 330.534 489.057 330.15 485.706 331.627C484.977 331.952 483.664 332.989 482.792 333.944C481.297 335.595 481.132 335.661 479.18 335.398C475.851 334.896 470.755 332.085 467.14 328.774C461.245 323.298 457.966 318.008 458.993 315.687C459.353 314.875 459.685 314.837 461.736 315.282C463.021 315.528 465.626 315.941 467.503 316.17C469.379 316.399 470.904 316.612 470.87 316.689C470.702 318.187 471.332 320.825 472.07 321.799C474.031 324.378 479.788 326.001 485.583 325.606L487.614 325.488L486.319 322.926C485.585 321.537 484.581 319.844 484.079 319.252C482.319 317.132 483.058 317.089 487.012 319.024C489.856 320.421 491.148 320.346 494.972 318.616C497.738 317.343 502.688 313.475 504.368 311.305L505.127 310.3L502.054 309.217C497.259 307.557 491.871 307.438 488.427 308.92C486.331 309.796 484.439 311.734 484.034 313.359C483.729 314.657 483.658 314.718 481.032 314.758C479.589 314.767 478.068 314.649 477.692 314.482C477.278 314.299 476.369 314.221 475.63 314.264C474.321 314.378 469.86 313.791 468.995 313.408C468.732 313.292 469.159 312.833 470.011 312.332C473.475 310.396 477.957 305.859 481.03 301.253C482.241 299.43 482.258 299.391 481.393 299.009C479.852 298.326 472.618 297.807 470.098 298.218C462.959 299.313 458.403 302.8 457.747 307.736C457.623 308.93 457.345 309.963 457.181 310.029C457.017 310.095 453.791 308.852 450.014 307.227L443.14 304.369L451.261 302.275C455.696 301.093 462.46 299.323 466.289 298.289C473.911 296.206 481.003 294.812 487.947 293.954C492.368 293.414 503.873 292.309 504.098 292.408C504.174 292.442 504.002 293.337 503.707 294.409C502.591 298.355 505.645 302.528 512.227 306.042L515.245 307.656L515.393 306.611C515.661 304.278 515.284 299.949 514.557 297.731C514.141 296.437 513.133 294.65 512.211 293.686L510.649 291.932L512.625 291.835C514.492 291.783 514.622 291.794 514.687 292.562C514.703 293.032 515.301 294.222 516.001 295.179C519.298 299.922 526.306 299.833 536.381 294.95C538.327 294.007 539.866 293.07 539.767 292.887C539.525 292.317 535.174 289.143 532.549 287.658C529.867 286.1 525.925 285.049 522.818 285.061C520.356 285.036 517.056 286.396 516.016 287.832C515.629 288.401 515.26 288.931 515.154 289.069C515.047 289.207 512.613 289.425 509.751 289.592C505.799 289.785 504.668 289.7 505.04 289.264C506.498 287.597 508.346 284.437 509.856 281.128L511.499 277.415L514.938 276.857C516.795 276.522 520.167 275.61 522.43 274.762L526.541 273.297L524.61 271.055C518.358 263.848 510.733 259.641 504.097 259.802L501.748 259.826L502.569 258.987C503.052 258.507 505.282 256.719 507.532 254.987L511.657 251.864L512.022 253.783C512.227 254.844 512.865 256.144 513.385 256.698C514.925 258.397 519.396 259.775 523.472 259.914C528.713 260.06 528.658 260.082 527.627 257.637C527.125 256.536 525.889 254.555 524.826 253.299C523.203 251.378 522.499 250.835 520.055 249.753L517.16 248.472L519.062 247.325C520.584 246.426 521.134 246.3 521.65 246.759C521.995 247.097 523.113 247.823 524.152 248.421C527.628 250.422 532.449 249.18 537.734 244.859C539.892 243.132 544.459 238.401 544.853 237.512C545.041 237.086 540.416 235.548 537.757 235.157C534.092 234.599 528.635 235.144 525.957 236.317C522.733 237.711 521.149 239.461 520.511 242.324L520.065 244.347L513.868 248.495C505.988 253.702 502.711 255.72 502.373 255.57C501.922 255.371 503.826 244.466 504.291 244.533C505.942 244.663 508.216 244.097 509.755 243.159C511.547 242.056 511.687 241.841 513.396 237.879C514.919 234.438 515.245 233.194 515.465 230.563C515.765 226.533 515.675 221.961 515.238 221.629C514.8 221.297 510.536 223.618 507.871 225.676C504.54 228.225 502.323 230.897 500.97 233.952C499.409 237.378 499.442 239.843 501.03 242.35C501.638 243.313 502.192 244.298 502.236 244.502C502.263 244.746 501.229 248.404 499.937 252.642C497.635 260.179 497.515 260.45 496.26 261.56L494.95 262.691L495.365 260.331C496.178 255.65 495.421 246.897 493.725 240.874L493.132 238.761L489.041 242.316C483.513 247.084 481.039 250.336 478.95 255.563C477.437 259.287 477.31 259.878 477.435 262.847C477.543 265.346 477.864 266.552 478.827 268.134C480.613 271.006 482.079 272.164 483.796 272.045C484.589 271.98 485.201 272.019 485.242 272.13C485.402 272.478 480.394 277.292 480.056 277.142C479.868 277.059 479.82 276.76 479.957 276.451C480.642 274.904 477.412 267.878 474.06 263.666L472.513 261.778L471.67 263.579C468.768 269.833 467.941 273.63 468.602 277.622C468.991 280.199 470.596 282.667 472.288 283.416C472.927 283.699 473.422 284.103 473.32 284.335C472.841 285.418 462.452 295.481 461.734 295.579C461.272 295.606 451.531 297.4 440.1 299.555C418.655 303.614 414.661 304.205 409.752 304.021C401.916 303.744 398.997 302.822 387.858 297.106C383.015 294.638 375.345 290.735 370.786 288.439C366.244 286.105 362.511 284.176 362.47 284.065C362.45 284.01 364.205 282.382 366.394 280.483C368.604 278.64 371.268 276.073 372.353 274.842L374.344 272.578L379.356 273.039C382.122 273.292 384.59 273.506 384.85 273.528C385.109 273.551 385.212 274.336 385.098 275.303C384.614 278.835 387.829 282.848 393.656 285.936L396.862 287.632L397.01 286.588C397.326 284.045 396.761 279.633 395.757 276.922L394.672 273.991L395.971 274.103C396.713 274.154 399.024 274.113 401.038 274.033C403.051 273.953 404.788 273.89 404.901 273.94C404.976 273.973 404.914 274.316 404.743 274.702C403.973 276.443 403.896 279.97 404.53 282.193C406.021 287.154 411.274 291.236 419.529 293.919C423.983 295.335 429.507 296.67 430.109 296.428C430.656 296.207 429.398 290.517 427.841 286.313C426.919 283.824 425.407 280.842 424.139 279.032L422.015 276.011L425.036 277.209C427.87 278.325 428.136 278.535 429.161 280.284C430.045 281.739 430.753 282.376 432.657 283.357C436.296 285.292 439.596 284.948 447.092 281.93C450.337 280.592 453.083 279.263 453.22 278.954C453.631 278.026 448.905 274.685 444.242 272.622C441.987 271.623 440.216 270.747 440.285 270.592C440.336 270.476 441.099 269.565 442.026 268.588C443.788 266.639 447.336 261.365 449.349 257.631L450.636 255.333L449.48 255.099C447.525 254.742 441.805 254.662 439.114 254.951C431.835 255.753 426.446 258.177 423.041 262.313C421.214 264.51 420.324 267.03 420.422 269.756L420.52 271.464L417.597 270.448C415.498 269.704 413.861 269.442 411.717 269.51L408.76 269.589L409.694 268.291C412.161 264.851 416.236 253.104 415.578 251.239C415.513 250.98 413.581 251.281 411.307 251.847C399.35 254.787 391.868 262.852 394.684 269.695L395.193 270.984L391.757 270.62C389.826 270.412 386.681 269.899 384.743 269.503C380.528 268.563 380.217 268.148 382.03 266.083C385.66 262.047 402.761 250.839 417.914 242.608L422.925 239.923L424.035 241.987C425.681 245.074 427.023 246.408 429.806 247.64C431.894 248.61 432.769 248.766 435.392 248.632C440.599 248.347 446.812 245.686 454.268 240.522C457.86 237.996 457.897 238.012 457.204 237.243C456.818 236.795 453.615 235.192 450.043 233.611C446.526 232.008 443.758 230.644 443.956 230.501C444.1 230.379 444.941 230.613 445.806 230.995C448.588 232.227 450.605 232.241 453.32 231.084C456.401 229.812 458.563 227.67 461.294 223.329C464.566 218.07 466.981 209.057 467.311 201.202C467.373 199.334 467.347 197.564 467.282 197.305C467.053 196.602 457.157 200.778 452.263 203.607C442.8 209.038 438.492 214.3 438.735 220.05C438.836 222.361 439.471 224.076 441.473 227.274L442.122 228.347L439.728 229.184C438.394 229.658 436.339 230.136 435.139 230.206L432.907 230.374L433.557 228.904C435.765 223.915 435.381 214.218 432.593 205.075L431.819 202.559L429.424 204.413C423.863 208.75 420 213.515 417.624 218.985C414.406 226.255 415.538 232.028 420.736 235.115L422.664 236.246L418.809 238.148L414.938 240.088L415.343 237.446C415.587 235.981 415.718 233.449 415.661 231.852C415.496 228.264 414.054 221.058 413.459 220.98C412.679 220.912 407.015 225.99 405.177 228.414C402.81 231.528 401.05 236.114 401.185 238.857C401.29 240.753 402.655 244.271 403.445 244.621C403.633 244.704 403.978 245.042 404.193 245.368C404.487 245.822 404.022 246.263 402.048 247.471C399.531 248.993 399.531 248.993 399.785 247.81C400.885 242.886 400.354 238.905 397.848 233.495C395.102 227.608 389.179 219.252 388.03 219.714C387.592 219.891 386.432 222.106 384.686 226.051C381.691 232.818 380.926 236.272 381.159 241.74C381.34 247.324 384.182 252.282 388.167 254.046C389.22 254.512 390.054 255.066 389.968 255.259C389.9 255.414 387.779 257.158 385.275 259.056C382.772 260.954 378.462 264.596 375.701 267.074C369.034 273.096 366.151 275.242 355.193 282.324C345.391 288.623 340.08 291.174 332.365 293.264C330.314 293.836 327.65 294.876 326.398 295.571C325.129 296.305 323.963 296.806 323.775 296.723C323.269 296.545 332.542 277.016 336.369 270.2C338.053 267.106 341.858 260.743 344.777 255.977L350.054 247.305L351.083 248.13C354.227 250.678 358.346 251.022 362.108 249.125C365.596 247.339 373.481 239.683 374.731 236.86C375.107 236.009 374.168 235.593 369.905 234.863C366.442 234.255 362.055 234.21 359.17 234.736L357.607 235.016L359.479 230.988L361.369 226.922L362.459 227.405C366.896 229.369 371.909 227.286 375.748 221.863C377.493 219.444 381.478 210.848 381.575 209.411C381.606 208.731 381.325 208.653 378.816 208.838C374.607 209.102 370.261 210.185 366.858 211.777L363.784 213.238L363.943 209.932C364.064 208.136 364.093 204.819 363.995 202.602L363.871 198.615L366.503 199.272C371.935 200.612 375.683 199.357 379.357 195.017C381.133 192.936 381.619 192.041 383.502 187.278C385.029 183.422 385.838 180.681 386.407 177.464C386.874 174.988 387.186 172.86 387.145 172.75C386.855 171.881 377.797 174.671 373.768 176.865C369.12 179.34 365.765 182.249 363.571 185.579L361.782 188.302L361.263 186.731C360.768 185.31 360.799 185.138 361.531 184.907C363.086 184.44 365.105 182.419 365.961 180.486C367.125 177.856 366.898 173.593 365.304 168.864C363.772 164.301 361.836 160.345 361.234 160.587C361.015 160.676 359.876 161.929 358.76 163.331C355.89 166.871 353.254 172.826 353.026 176.287C352.74 180.693 353.822 183.022 357.096 185.072L358.931 186.208L359.664 191.157C360.021 193.905 360.269 196.189 360.16 196.233C360.013 196.26 358.943 195.324 357.716 194.134C355.301 191.77 350.209 188.036 346.525 185.896L344.276 184.577L343.974 185.97C343.799 186.771 343.552 189.159 343.369 191.299C342.473 204.499 348.094 214.757 356.449 215.079C357.766 215.153 358.897 215.237 358.901 215.331C359.047 215.812 357.204 223.229 356.978 223.129C356.79 223.046 356.612 222.736 356.585 222.493C356.463 221.652 353.914 218.674 351.546 216.608C349.103 214.51 343.949 211.119 343.474 211.278C342.964 211.515 342.476 216.479 342.631 219.785C342.966 226.547 345.903 231.593 350.377 233.065C352.192 233.637 352.288 233.725 351.894 234.615C351.192 236.2 342.46 248.615 342.159 248.482C341.971 248.399 341.223 247.651 340.434 246.793C339.163 245.398 339.098 245.138 339.666 244.465C341.428 242.516 342.291 240.262 342.272 237.663C342.274 234.612 340.865 228.346 340.161 228.312C339.306 228.211 335.889 231.971 334.568 234.346C333.893 235.666 333.226 236.666 333.113 236.616C332.888 236.516 329.503 230.347 329.572 230.192C329.606 230.115 330.29 229.585 331.046 228.995C332.777 227.726 333.965 224.737 334.179 220.9C334.427 216.987 334.369 216.915 332.495 217.796C330.587 218.755 327.184 221.365 326.841 222.139C326.704 222.448 326.486 222.536 326.366 222.298C326.035 221.828 325.084 215.95 325.238 215.602C325.307 215.447 326.367 215.084 327.615 214.804C332.002 213.832 334.859 209.916 335.04 204.632C335.169 199.463 332.507 187.092 330.546 184.004L329.88 182.969L327.246 185.365C319.327 192.589 314.71 201.091 315.185 207.637C315.47 210.954 317.568 213.733 320.562 214.688L322.62 215.321L322.95 218.335C323.385 222.228 324.009 225.695 324.926 229.107L325.67 231.795L322.347 231.989C319.523 232.173 312.684 233.91 311.952 234.649C311.702 234.909 314.429 237.688 316.694 239.477C318.468 240.956 322.809 242.831 324.908 243.066C325.855 243.162 327.438 242.937 328.443 242.596L330.269 241.924L331.618 243.955L333.005 246.003L331.573 246.294C328.635 246.936 322.534 250.155 322.838 250.891C322.882 251.096 324.523 251.961 326.44 252.809C329.356 254.146 330.214 254.341 332.19 254.244C333.52 254.185 335.076 253.718 335.798 253.205C337.368 252.096 337.747 252.356 337.804 254.463C337.83 255.723 337.58 256.491 336.496 258.231C335.743 259.424 330.944 268.03 325.838 277.332C320.732 286.634 315.985 295.124 315.321 296.218L314.096 298.173L308.112 298.994C289.351 301.558 275.925 302.229 265.286 301.174C262.408 300.871 253.092 299.061 242.762 296.801C233.084 294.691 224.805 292.877 224.378 292.826C223.728 292.77 223.814 292.577 225.463 291.087C226.448 290.181 229.564 287.306 232.359 284.75C235.17 282.156 237.555 280.02 237.664 279.976C237.774 279.932 238.228 280.734 238.689 281.725C239.133 282.754 239.822 283.938 240.263 284.364C241.627 285.754 245.318 287.064 248.248 287.251C251.4 287.443 257.873 286.331 261.949 284.944L264.582 284.074L262.361 281.472C261.145 280.055 259.112 278.046 257.799 277.048C254.734 274.628 249.337 272.193 246.968 272.162L245.211 272.17L246.005 271.088C246.408 270.48 246.915 269.641 247.086 269.254C247.274 268.829 250.718 267.347 255.505 265.673L263.617 262.788L263.78 264.248C263.991 266.006 265.477 267.728 267.62 268.677C269.274 269.409 273.688 270.206 275.219 270.098C276.105 270.027 276.081 269.878 275.19 267.726C274.101 265.209 271.716 262.165 270.4 261.582C269.084 261 269.587 260.575 272.805 259.502L275.787 258.555L276.709 260.027C277.201 260.846 278.205 262.031 278.93 262.629C282.494 265.548 289.52 264.403 297.804 259.605L301.374 257.532L299.85 256.302C291.375 249.545 279.929 248.688 276.623 254.532C275.617 256.399 275.617 256.399 269.592 258.126L263.567 259.853L264.163 257.388C264.485 256.051 264.736 253.757 264.72 252.27L264.698 249.577L262.861 250.476C257.769 252.939 254.68 257.075 255.375 260.482C255.726 262.025 255.692 262.102 254.776 262.344C252.926 262.866 251.565 263.097 251.521 262.892C251.473 262.593 256.191 244.517 256.588 243.722C256.759 243.335 257.464 242.861 258.179 242.668C261.13 241.893 262.601 239.584 263.069 235.074C263.358 232.288 263.135 227.611 262.646 226.886C262.021 225.962 256.583 230.122 254.437 233.242C252.292 236.363 252.068 239.408 253.882 242.015C254.196 242.524 253.98 243.723 252.86 247.066C252.075 249.448 251.315 251.47 251.189 251.553C251.042 251.58 250.225 250.479 249.324 249.062C246.775 245.067 240.867 239.723 233.834 234.992C232.187 233.939 232.136 234.055 231.117 239.709C230.194 244.943 230.092 249.338 230.784 253.667C231.775 260.165 234.442 264.398 238.284 265.775C239.727 266.274 241.009 266.426 242.055 266.195C243.139 265.981 243.566 266.031 243.412 266.379C243.121 267.037 236.378 275.568 235.201 276.805L234.253 277.727L234.21 276.505C234.01 272.994 228.362 266.656 221.681 262.45C219.713 261.208 219.675 261.192 218.852 265.591C217.034 274.776 220.14 284.522 225.025 285.065C225.825 285.188 226.478 285.339 226.444 285.416C226.392 285.532 225.4 286.249 224.227 287.071C221.789 288.72 218.684 289.844 216.667 289.83C211.743 289.778 199.756 285.675 191.006 281.062C181.823 276.211 178.874 273.934 176.131 269.668L174.819 267.654L178.679 268.483C180.805 268.962 182.74 269.263 183.068 269.131C183.67 268.889 182.445 265.155 181.116 263.18L180.293 261.89L182.427 260.522C184.216 259.325 187.931 255.605 188.461 254.406C188.701 253.865 187.447 253.448 184.701 253.251C180.175 252.912 176.786 254.372 175.536 257.195C175.006 258.394 174.718 258.637 173.7 258.602C170.438 258.454 169.642 257.916 157.781 248.041C151.469 242.797 142.55 235.519 137.961 231.869L129.64 225.272L130.041 224.062C131.26 220.393 141.656 215.699 145.153 217.246L146.619 217.895L145.729 219.906C143.011 226.149 146.922 232.043 157.322 237.294L161.844 239.572L161.992 238.528C162.325 235.947 162.027 230.727 161.386 227.807C160.568 224.069 159.407 221.613 157.364 219.321L155.935 217.671L159.799 218.086C161.935 218.338 163.887 218.601 164.188 218.734C164.489 218.867 164.967 219.819 165.264 220.875C165.707 222.413 166.134 222.972 167.419 223.725C169.326 224.801 173.268 225.343 176.564 224.906L178.739 224.666L178.182 223.587C176.392 220.112 172.384 216.673 169.574 216.216C168.942 216.121 167.656 216.384 166.709 216.797C165.307 217.426 164.014 217.501 160.038 217.036C149.731 215.943 147.848 215.525 143.76 213.485C141.651 212.459 140.007 211.5 140.076 211.345C140.144 211.191 141.546 211.071 143.249 211.085C144.914 211.082 149.833 211.039 154.196 210.935C158.558 210.831 163.184 210.844 164.483 210.956C165.782 211.069 167.095 211.048 167.406 210.955C167.735 210.823 170.559 210.639 173.643 210.478L179.311 210.166L180.435 211.588C181.87 213.426 184.218 214.419 186.693 214.312C188.984 214.216 194.835 211.764 197.777 209.69C200.178 208.024 200.219 208.135 196.61 206.028C192.095 203.429 185.555 202.662 182.508 204.366C181.656 204.867 180.548 205.949 179.973 206.944C178.905 208.645 178.851 208.667 175.712 208.85C173.903 208.974 172.423 208.967 172.42 208.873C172.379 208.762 173.159 207.812 174.175 206.736C175.653 205.124 176.402 203.837 178.216 199.737C180.839 193.914 182.449 188.245 181.485 188.188C179.762 188.119 174.318 189.548 170.854 190.975C162.175 194.533 157.823 200.608 159.316 207.189L159.804 209.44L158.248 209.399C157.397 209.392 155.954 209.401 155.065 209.378C153.01 209.347 153.031 209.402 153.975 208.386C155.706 206.609 156.618 203.127 156.49 198.539C156.447 197.317 156.317 196.288 156.167 196.222C155.716 196.022 152.976 197.538 151.485 198.774C148.088 201.572 146.726 204.854 147.736 207.752L148.231 209.174L145.205 208.899C143.517 208.752 142.084 208.535 142.06 208.385C142.019 208.275 142.492 207.512 143.111 206.723C144.206 205.265 145.258 201.568 145.434 198.224L145.517 196.919L143.072 197.872C138.674 199.579 135.794 202.836 135.939 205.861C135.996 206.95 135.928 207.105 135.353 207.082C133.76 207.024 123.831 202.028 119.905 199.319C118.9 198.643 118.876 198.494 119.608 197.754C121.284 195.998 123.86 188.86 122.92 188.444C122.619 188.31 120.824 188.811 118.926 189.543C116.207 190.606 115.157 191.251 114.148 192.516C112.68 194.41 112.68 194.41 109.232 191.635C107.079 189.896 106.615 189.32 105.867 187.047C105.372 185.626 104.574 183.468 104.031 182.257L103.136 180.011L101.474 181.634L99.8113 183.257L98.1986 181.618C97.3342 180.727 96.2307 179.359 95.7422 178.634L94.8438 177.312L96.205 176.573C105.028 171.876 115.49 165.915 119.088 163.577L123.534 160.642L126.152 162.449C127.594 163.457 128.811 164.365 128.852 164.476C128.893 164.587 128.469 165.139 127.935 165.735C124.09 169.953 125.053 176.207 130.656 183.867C132.347 186.141 136.04 190.088 136.792 190.421C137.131 190.571 137.562 189.698 138.61 186.925C140.295 182.305 140.878 178.956 140.696 174.898L140.598 171.664L143.203 173.094C144.638 173.914 146.771 175.089 147.998 175.771L150.188 177.018L149.179 178.791C147.909 181.051 148.113 183.13 149.834 186.25C150.883 188.148 154.525 192.72 155.201 193.019C155.615 193.202 157.338 187.583 157.507 185.576C157.599 184.554 157.539 182.862 157.372 181.817C157.222 180.733 157.154 179.87 157.264 179.826C157.356 179.821 158.252 180.032 159.26 180.294C160.792 180.694 161.116 180.976 161.406 181.845C162.239 184.433 165.647 186.08 169.22 185.627C171.466 185.326 176.424 183.266 179.373 181.38C181.199 180.199 181.36 180.039 180.84 179.485C180.533 179.164 178.103 177.95 175.396 176.752C170.809 174.722 170.361 174.616 167.886 174.723C165.041 174.851 163.041 175.816 161.792 177.622L160.998 178.704L157.149 177.139L153.263 175.558L156.983 174.06C159.008 173.245 162 171.563 163.605 170.377C167.066 167.839 173.432 161.684 173.172 161.153C172.91 160.528 165.424 158.14 161.889 157.593C155.264 156.51 149.01 157.535 145.261 160.315C143.856 161.358 143.236 162.148 142.394 163.949C141.812 165.264 141.312 166.8 141.278 167.386C141.185 168.408 141.147 168.392 139.934 167.577C136.708 165.317 129.868 158.219 130.193 157.485C130.569 156.634 135.614 154.38 139.57 153.264C144.35 151.911 149.01 151.337 154.969 151.385C159.872 151.381 162.993 151.745 175.956 153.644C181.183 154.431 191.986 155.929 199.962 157.008L214.426 158.97L219.94 164.695C227.262 172.329 235.952 180.939 241.408 186.083C243.841 188.408 245.891 190.379 245.949 190.451C245.99 190.562 245.087 191.18 243.966 191.886C242.009 193.055 241.832 193.254 240.411 196.463C239.11 199.403 238.952 200.165 239.015 202.968C239.004 204.721 239.314 207.679 239.675 209.504C240.357 213.043 241.827 217.949 242.278 218.148C242.654 218.315 247.652 213.728 249.568 211.431C252.124 208.4 254.547 202.72 254.536 199.801C254.547 198.558 254.602 197.518 254.657 197.496C254.749 197.491 255.484 197.862 256.28 198.4C257.548 199.192 258.118 200.138 259.982 204.663L262.171 209.979L260.53 210.132C257.668 210.299 255.12 212.501 253.459 216.252C252.689 217.992 251.044 224.248 251.228 224.746C251.478 225.504 258.125 223.081 260.725 221.272C261.737 220.61 262.969 219.351 263.53 218.49C264.053 217.611 264.659 216.954 264.847 217.038C264.997 217.104 265.325 217.989 265.547 219.012C265.894 220.461 265.774 221.241 265.007 223.075C263.813 225.876 264.228 228.187 266.295 230.628C268.806 233.59 277.275 238.633 277.772 237.512C278.251 236.429 277.694 230.679 276.878 228.051C275.257 223.079 272.872 220.543 269.532 220.268C268.531 220.194 267.69 219.961 267.608 219.74C267.563 219.535 267.062 217.417 266.588 215.033C266.06 212.672 265.087 209.282 264.394 207.495C262.981 203.678 262.592 203.645 270.131 208.045C280.24 213.954 286.123 216.511 293.496 218.341C294.915 218.691 294.993 218.818 295.013 220.4C295.08 222.788 296.429 225.327 298.445 226.867C301.62 229.244 308.901 230.062 316.389 228.89L318.762 228.506L316.761 225.308C313.721 220.494 310.659 217.659 306.486 215.812C302.463 214.031 300.094 214 297.474 215.754C296.136 216.642 295.494 216.774 293.815 216.401C292.66 216.167 291.221 215.761 290.582 215.478L289.378 214.946L291.109 214.185C294.518 212.781 298.976 208.094 302.685 202.151L303.787 200.372L302.184 200.033C297.053 198.825 288.707 199.803 285.123 202.009C281.774 204.088 280.437 205.993 280.182 209.21L280.04 210.951L277.077 209.316C275.437 208.451 273.509 207.321 272.771 206.855L271.5 205.969L274.625 204.901C276.817 204.114 278.613 203.105 280.661 201.421C283.682 198.966 288.064 194.246 289.748 191.661L290.747 190.114L289.366 189.781C282.18 188.034 274.909 188.007 270.272 189.747C265.799 191.421 263.589 193.772 262.728 197.647L262.358 199.194L258.524 195.971C250.169 188.943 240.427 179.867 234.947 174.065C228.985 167.727 224.493 161.622 225.515 161.242C225.915 161.049 238.869 161.14 239.245 161.307C239.32 161.34 239.2 162.119 238.936 163.02C238.063 166.01 238.639 168.67 240.805 171.293C242.527 173.397 243.135 173.851 246.639 175.587C250.405 177.439 257.139 179.494 258.872 179.336C259.406 179.249 259.42 178.607 258.908 176.207C257.705 170.495 254.867 165.123 251.269 161.773C250.791 161.33 252.117 161.177 256.685 161.117C259.977 161.094 262.733 161.065 262.77 161.082C262.808 161.099 262.428 161.856 261.925 162.789C259.598 167.031 260.74 172.578 264.666 176.304C266.6 178.132 267.488 178.664 272.677 180.96C278.108 183.318 284.579 185.257 286.476 185.033C288.025 184.886 284.787 174.018 281.703 168.999C279.855 165.961 276.513 162.54 274.634 161.708C274.145 161.492 273.783 161.192 273.868 160.999C274.005 160.69 282.737 160.161 283.359 160.482C283.585 160.582 283.919 161.147 284.107 161.739C284.274 162.275 285.036 163.398 285.784 164.146C288.586 166.958 293.389 167.281 299.193 165.039C303.006 163.536 308.884 160.31 308.827 159.73C308.782 159.525 307.45 158.473 305.823 157.475C301.903 154.954 296.803 153.067 293.449 152.924C289.261 152.735 285.311 154.548 284.093 157.2C283.73 157.918 282.885 158.099 278.673 158.27C275.9 158.337 273.682 158.373 273.733 158.257C273.784 158.141 274.674 157.147 275.707 156.032C277.383 154.276 277.975 153.243 280.197 148.122C281.926 144.216 282.734 141.984 282.591 141.596C282.406 141.099 281.774 141.004 280.061 141.217C269.397 142.555 261.749 148.05 262.005 154.176C262.046 155.304 262.448 156.731 262.879 157.384L263.698 158.579L259.35 158.55C256.926 158.541 254.204 158.493 253.298 158.508L251.613 158.456L253.751 156.674C256.59 154.323 259.19 150.479 261.467 145.335C263.11 141.623 264.877 136.208 264.652 135.599C264.471 135.195 256.857 136.45 253.451 137.44C249.532 138.573 245.538 140.69 242.808 142.997C241.194 144.41 240.629 145.177 239.397 147.962C238.096 150.901 237.986 151.453 238.269 153.151C238.473 154.213 238.989 155.69 239.405 156.475L240.177 157.881L238.543 157.712C232.694 157.112 227.392 156.292 220.213 154.733C210.593 152.695 199.418 150.616 194.137 149.851C191.217 149.438 190.506 149.216 190.845 148.857C191.738 147.957 198.814 143.55 201.054 142.553C203.13 141.622 203.369 141.589 203.471 142.374C203.794 145.2 205.848 147.265 209.457 148.354C212.172 149.231 217.207 149.841 217.413 149.377C217.721 148.681 215.207 143.591 213.759 141.886C212.966 140.934 211.726 139.877 211.087 139.594C210.41 139.294 209.897 138.929 210.02 138.752C210.212 138.42 215.242 136.808 215.618 136.974C215.769 137.041 215.922 137.71 216.024 138.495C216.292 141.852 219.935 143.88 224.955 143.512C227.871 143.323 232.661 142.252 232.939 141.727C233.161 141.224 229.854 137.725 227.612 136.086L225.524 134.607L229.063 134.23C232.933 133.816 233.381 133.922 234.413 135.35C235.424 136.722 238.015 137.776 240.083 137.674C242.685 137.485 247.066 135.308 250.445 132.548C253.968 129.668 253.948 129.613 249.207 127.93C241.919 125.399 236.288 126.236 233.694 130.268C232.869 131.522 232.558 131.615 226.828 132.27C221.669 132.854 217.401 133.555 213.418 134.428C212.372 134.659 212.351 134.603 213.016 131.984C213.389 130.531 214.04 128.552 214.485 127.547L215.273 125.768L216.39 127.002C217.698 128.414 219.664 129.053 222.214 128.979C225.856 128.88 235.25 124.112 234.697 122.618C234.308 121.567 226.118 118.127 223.783 118.019C222.744 117.929 221.961 117.767 222.03 117.613C222.115 117.419 223.873 116.394 226.017 115.308L229.848 113.257L230.794 114.878C231.637 116.223 232.075 116.555 233.798 117.133C235.931 117.799 241.606 117.675 241.856 116.907C242.055 116.255 239.96 113.571 238.06 112.175C236.653 111.089 236.4 110.746 236.926 110.47C237.272 110.299 238.164 110.417 238.878 110.733C241.849 112.048 245.781 110.782 248.976 107.525C250.885 105.549 254.864 99.9101 254.701 99.4676C254.557 99.0804 249.436 98.6636 246.797 98.8366C241.757 99.1497 237.191 101.846 236.181 105.145C235.801 106.411 235.37 106.775 233.424 107.717L231.132 108.831L231.845 105.493C232.26 103.641 232.611 101.021 232.71 99.678C232.934 96.6323 232.156 88.8416 231.324 85.7445L230.744 83.4992L229.294 84.3373C226.811 85.782 221.697 90.2247 219.442 92.8805C216.227 96.5908 213.816 102.138 213.869 105.676C213.912 108.932 214.874 111.532 216.938 113.879C217.826 114.92 218.598 115.816 218.656 115.888C218.697 115.999 217.603 116.948 216.217 118.046C214.87 119.161 213.224 120.745 212.588 121.574L211.421 123.092L210.267 120.315C209.584 118.81 207.952 116.099 206.537 114.317C204.078 111.239 197.944 105.287 197.397 105.508C197.233 105.574 196.627 107.248 196.068 109.221C194.849 113.398 194.2 118.522 194.495 121.613C194.825 124.626 196.269 128.78 197.625 130.491C198.807 131.985 201.357 133.437 203.346 133.717C206.266 134.13 202.295 136.905 196.017 138.797L192.173 139.964L192.729 137.388C193.03 135.995 193.275 133.514 193.289 131.855C193.219 128.864 192.361 122.981 191.91 122.781C191.572 122.631 187.785 125.395 185.996 127.101C181.183 131.677 179.111 137.373 180.942 140.959C181.399 141.855 181.707 142.685 181.655 142.801C181.518 143.11 172.97 145.154 171.346 145.267C170.607 145.311 168.098 144.986 165.842 144.496C152.127 141.756 145.491 141.409 137.278 143C132.502 143.938 129.195 145.111 126.811 146.738C125.039 147.896 124.691 147.973 124.465 147.365C123.708 145.318 125.232 134.153 126.756 130.711C127.132 129.86 127.313 129.756 127.775 130.237C130.99 133.741 134.035 135.089 138.056 134.742C141.229 134.481 146.81 132.234 150.661 129.73C153.698 127.744 159.136 123.584 159.376 123.042C159.616 122.501 149.512 118.306 146.381 117.66C143.044 116.97 138.624 117.002 135.854 117.672L134.021 118.156L135.345 116.892C136.08 116.246 137.538 114.579 138.564 113.276C141.945 108.991 141.548 109.278 143.315 110.06C144.969 110.792 147.534 110.586 149.715 109.516C152.243 108.276 158.003 102.779 158.893 100.768C159.15 100.188 158.904 100.032 157.055 99.5377C151.808 98.1865 145.978 98.6587 142.869 100.705C140.735 102.073 139.475 104.614 139.727 106.992C139.989 109.143 139.141 109.23 138.694 107.09C137.787 102.942 134.663 96.7954 130.926 91.6264C129.06 89.1358 129.279 89.0477 126.884 92.9361C124.625 96.5151 123.057 100.261 122.276 103.754L121.641 106.71L118.768 109.139C117.188 110.474 115.351 112.39 114.646 113.373C112.767 116.195 112.393 119.683 113.752 121.487C114.295 122.19 114.244 122.306 111.747 124.392L109.195 126.5L108.776 124.095C108.235 120.849 106.401 116.152 105.861 116.561C104.633 117.405 102.556 120.37 101.495 122.768C100.023 126.094 99.9186 128.869 101.179 130.491C101.681 131.083 102.02 131.741 101.934 131.935C101.78 132.283 94.8027 136.872 92.8773 137.87L91.4614 138.63L92.2766 136.078C92.7253 134.657 93.267 132.215 93.432 130.623C93.8957 127.036 93.7116 120.34 93.1372 120.317C92.4877 120.261 87.9494 122.692 85.5689 124.414C81.167 127.553 77.889 132.114 77.2646 135.862C77.069 137.116 77.2493 138.537 77.7784 139.882L78.5943 142L76.2865 142.135C75.0317 142.227 73.9411 142.253 73.8659 142.22C73.7531 142.17 74.2052 140.844 74.7771 139.247C75.5544 137.186 75.8426 135.417 75.8954 132.758C75.9342 130.74 75.8156 128.977 75.6243 128.8C75.0878 128.285 70.4331 131.081 68.3054 133.145C65.9108 135.508 64.4491 138.607 64.7315 140.813L64.8982 142.367L62.3956 142.23C59.3188 142.071 52.9397 141.144 50.5093 140.438L48.66 139.943L52.9598 130.33C55.2877 125.071 57.5884 119.568 58.0542 118.109L58.8661 115.462L64.1755 115.454L69.485 115.445L69.4361 117.181C69.4007 119.293 71.1528 122.242 73.7841 124.424C74.758 125.271 75.8446 126.168 76.1864 126.412C76.8937 127.049 77.1504 126.469 77.5799 122.959C77.8443 121.041 77.688 119.261 77.2035 117.612C76.7838 116.224 76.5212 115.091 76.6307 115.046C76.723 115.041 78.6582 114.834 80.8532 114.649C83.0653 114.426 86.2862 113.955 87.9924 113.554C90.2492 113.027 91.3945 112.979 92.372 113.411C94.1015 114.177 96.6178 114.181 98.5533 113.465C102.168 112.105 105.127 108.466 108.277 101.35C109.663 98.2176 110.3 96.3721 110.075 96.2723C109.21 95.8895 104.697 96.4356 101.322 97.2543C97.2152 98.3041 93.8192 100.085 91.5717 102.42C89.502 104.556 89.009 105.772 89.1441 108.514C89.1707 109.775 89.153 110.83 89.0983 110.852C89.0436 110.874 87.775 111.099 86.2843 111.318L83.5797 111.74L85.0857 108.845C86.8143 105.448 87.6716 100.971 87.5068 96.3658L87.3683 93.5295L85.5251 94.24C81.1446 95.9085 75.8153 100.533 74.309 103.937C73.3162 106.18 73.1371 108.413 73.7582 110.26C74.0893 111.239 74.3042 112.074 74.2871 112.113C74.0988 112.538 64.2054 111.119 62.6639 110.437L61.6112 109.971L63.0863 107.248C65.2767 103.315 68.1882 99.8862 72.6042 96.1059C76.9859 92.4029 79.4484 90.9028 98.3402 80.6261C105.563 76.7007 113.056 72.5711 115.105 71.3966L118.768 69.3179L122.029 69.9751C123.8 70.3426 125.403 70.6822 125.516 70.7322C125.666 70.7987 125.635 71.4787 125.422 72.2634C124.703 75.4135 126.39 77.5942 131.278 79.7575C135.602 81.6712 136.029 81.7216 135.951 80.0685C135.85 78.2661 134.396 74.3388 133.367 73.005C132.865 72.4127 132.568 71.8649 132.677 71.8209C132.842 71.7548 139.539 72.7764 139.915 72.9429C140.027 72.9928 139.764 73.8935 139.319 74.899C137.059 80.0038 139.644 85.033 146.91 89.5439C149.784 91.2785 157.41 94.4687 158.121 94.1823C158.651 94.0006 158.298 89.3121 157.46 85.5184C156.665 81.9293 154.562 77.4371 152.969 75.8536C152.413 75.2834 151.985 74.7244 152.037 74.6084C152.088 74.4923 154.126 74.5617 156.594 74.7755C159.025 74.9726 162.396 75.0771 164.04 75.0188L167.069 74.8795L169.691 76.7797C171.761 78.2975 172.185 78.7625 171.812 79.1987C168.74 82.279 169.311 87.8966 173.359 94.498C174.773 96.7888 175.138 97.1819 175.607 96.8343C176.722 95.9404 179.522 89.9186 179.917 87.5033C180.095 86.2874 180.393 85.3093 180.506 85.3592C180.619 85.4091 181.248 85.9187 181.952 86.4615C182.83 87.2202 183.151 87.9173 183.236 89.2497C183.269 90.1896 183.785 91.6664 184.389 92.5353C186.398 95.413 191.789 96.6428 198.993 95.8077C200.466 95.6275 201.769 95.3254 201.837 95.1707C202.06 94.6679 199.652 90.9659 197.769 89.0226C195.75 86.8801 192.513 84.8464 190.312 84.3345C189.529 84.173 188.049 84.1653 187.02 84.3572L185.183 84.747L182.84 82.3221C179.71 79.1331 178.295 77.8595 176.053 76.2197L174.211 74.8957L178.475 74.6091C180.8 74.4356 184.783 74.0712 187.289 73.7929C189.795 73.5147 191.915 73.2968 191.99 73.33C192.066 73.3633 191.987 73.7447 191.798 74.1701C191.165 75.601 191.604 78.5703 192.622 80.1309C193.425 81.3649 194.146 81.869 196.289 82.8176C197.718 83.4499 199.7 84.05 200.647 84.1453C204.138 84.4878 209.246 84.5286 209.382 84.2192C209.622 83.6778 207.146 79.1132 205.366 76.9379C204.475 75.8032 202.732 74.1532 201.443 73.3054L199.185 71.7044L200.515 71.1369C202.772 70.101 203.306 69.5047 203.354 67.7689L203.41 66.221L201.635 67.2853C199.679 68.4544 193.961 70.5025 191.534 70.9079L189.988 71.1489L190.871 69.9671C192.298 67.9625 194.044 63.5092 194.716 60.0605C195.021 58.2532 195.207 56.7166 195.094 56.6667C194.605 56.4503 189.121 58.2776 187.233 59.292C181.443 62.4179 178.821 67.2237 180.829 71.1187L181.427 72.3081L178.75 72.4645C175.926 72.6482 165.908 72.4232 165.344 72.1736C165.156 72.0904 165.759 71.3394 166.71 70.5116C169.579 67.9894 174.234 58.9962 172.956 58.4304C172.016 58.0144 166.244 59.0672 163.618 60.1248C157.781 62.4435 154.995 66.8067 156.87 70.5965C157.089 71.0169 157.102 71.3929 156.993 71.437C156.61 71.5912 142.47 69.9116 141.831 69.6287C141.38 69.429 141.465 69.2356 142.509 68.4024C143.696 67.4478 147.464 60.5595 146.937 60.3266C146.787 60.26 146.028 60.2478 145.197 60.2963C139.662 60.7138 135.065 64.0903 135.75 67.2148C135.88 67.7347 135.938 68.3152 135.886 68.4312C135.732 68.7793 128.947 66.8398 127.792 66.0973C126.828 65.5319 126.9 65.4712 135.488 59.8838C151.939 49.128 166.537 38.8007 167.136 37.4472C167.41 36.8284 167.04 32.6871 166.701 32.5373C166.551 32.4708 164.711 33.7838 162.624 35.4502ZM493.91 269.815C495.056 273.422 498.002 276.113 501.83 277.114C502.876 277.392 503.717 277.625 503.7 277.664C503.683 277.702 502.408 278.248 500.858 278.903C495.373 281.239 492.444 285.215 493.345 289.175L493.72 290.867L488.871 291.357C486.198 291.608 483.91 291.798 483.798 291.748C483.685 291.698 484.841 290.915 486.38 289.977C489.461 288.196 492.016 286.182 491.853 285.74C491.378 284.373 484.415 282.124 481.294 282.269C480.241 282.311 479.389 282.304 479.348 282.194C479.226 281.862 492.848 267.542 493.186 267.691C493.224 267.708 493.555 268.687 493.91 269.815ZM131.309 119.407C130.885 119.959 130.119 120.776 129.565 121.317C128.244 122.675 121.747 136.542 120.613 140.526C120.065 142.272 119.509 145.356 119.323 147.401L118.993 151.094L114.906 154.233C112.638 156.004 108.38 159.022 105.38 161.024C100.571 164.168 98.4989 165.194 88.3767 169.269C73.402 175.268 70.7827 176.004 60.4061 176.592C50.621 177.163 41.8272 178.034 37.1976 178.945L33.9082 179.571L35.4237 172.286L36.922 165.041L39.1319 162.689L41.3043 160.321L42.6606 162.031C44.1535 163.941 45.6369 164.551 49.4043 164.877C51.7256 165.118 57.3841 164.524 57.5895 164.06C57.658 163.905 56.5683 162.406 55.1744 160.679C52.8513 157.801 52.4139 157.468 49.7068 156.27C48.0901 155.554 46.8085 154.895 46.8427 154.817C47.0994 154.237 48.9979 152.488 49.2611 152.604C49.4491 152.687 49.8728 153.152 50.187 153.661C51.3791 155.438 54.2943 157.283 58.4952 158.865C61.9817 160.13 66.3503 161.232 68.5759 161.384C68.9656 161.418 68.9115 160.423 68.4273 158.266C67.52 154.627 66.1304 151.468 63.9238 148.225L62.3627 145.962L67.4774 145.682C70.3015 145.498 72.7973 145.447 73.0229 145.547C73.2485 145.646 73.1867 145.989 72.8481 146.348C72.0304 147.281 72.0665 149.841 72.9065 151.6C73.668 153.232 76.4765 156.232 78.3903 157.496C79.3574 158.155 79.5421 158.144 79.8673 157.41C80.4835 156.017 80.7185 151.728 80.2615 149.814C80.0399 148.791 79.3433 147.419 78.7078 146.722C77.6315 145.598 77.3209 144.674 78.0729 145.007C78.2233 145.073 81.5089 144.863 85.3622 144.487C90.8395 143.998 92.4497 144.017 92.764 144.526C94.5228 147.663 94.6561 147.768 97.3188 148.762C99.5303 149.555 100.775 149.69 104.32 149.502C106.72 149.362 108.727 149.094 108.813 148.9C109.07 148.32 106.651 144.845 104.909 143.195C103.473 141.866 103.432 141.755 104.233 141.369C104.742 141.132 105.296 140.591 105.502 140.127C105.844 139.354 105.731 139.304 102.405 139.404C100.5 139.44 98.8697 139.366 98.8458 139.216C98.8049 139.106 101.244 136.948 104.281 134.454C109.528 130.116 109.836 129.929 110.619 130.599C112.163 131.884 113.845 132.35 115.811 131.972C117.924 131.566 122.596 129.24 122.5 128.643C122.46 128.023 119.196 126.255 117.312 125.838C115.688 125.443 115.63 125.371 116.198 124.697C116.499 124.322 117.717 123.704 118.832 123.319C121.485 122.505 122.778 121.412 123.754 119.208L124.524 117.467L125.953 118.1C126.78 118.466 128.305 118.678 129.484 118.553C132.158 118.302 132.233 118.336 131.309 119.407ZM474.523 290.048C474.872 290.48 475.712 291.222 476.358 291.693L477.571 292.507L474.511 292.818C472.853 293.009 471.431 293.073 471.39 292.962C471.287 292.686 473.526 289.051 473.751 289.151C473.826 289.184 474.192 289.578 474.523 290.048ZM48.3438 148.683L48.2674 150.684L43.311 154.873C39.1447 158.394 38.3307 158.912 38.5022 158.017C39.6438 152.695 39.6952 152.579 42.3398 149.448C44.3447 147.052 45.1177 146.423 46.0579 146.33C48.0307 146.14 48.4339 146.549 48.3438 148.683ZM92.3716 183.71C94.3845 185.156 96.3017 186.513 96.5682 186.724C96.9509 187.078 96.7214 187.901 95.5094 190.741C94.2428 193.603 93.9172 194.846 93.8751 196.77C93.8565 199.352 94.8839 202.212 96.3771 203.613C96.9511 204.144 97.115 204.587 96.8414 204.697C96.0754 205.005 87.9601 203.125 71.8427 198.904C63.9806 196.858 54.9049 194.506 51.7122 193.694C48.4818 192.866 45.8087 192.099 45.7473 191.933C45.5425 191.38 48.8636 189.057 51.2539 188.127C54.4821 186.827 86.7393 180.385 87.8092 180.812C88.2775 180.973 90.3417 182.303 92.3716 183.71ZM112.008 197.35C112.541 197.771 112.627 198.086 112.271 198.484C111.628 199.124 106.19 202.267 105.91 202.189C105.759 202.123 106.016 201.543 106.399 200.88C106.783 200.217 107.221 198.515 107.355 197.094L107.596 194.518L109.449 195.616C110.433 196.237 111.571 197.018 112.008 197.35ZM134.325 211.436L139.937 214.706L135.32 217.01C132.831 218.267 129.818 219.894 128.716 220.655C126.839 221.951 126.637 222.001 125.058 221.302C124.193 220.919 119.996 218.414 115.758 215.798C111.537 213.144 106.551 210.289 104.651 209.402L101.209 207.832L102.717 207.066C103.534 206.642 104.971 205.936 105.88 205.506L107.536 204.713L108.236 206.179C108.778 207.39 109.332 207.867 110.874 208.549C114.086 209.925 121.235 209.62 120.829 208.099C120.465 206.689 116.918 203.223 114.98 202.319C113.907 201.798 113.021 201.36 113.056 201.282C113.09 201.205 113.593 200.78 114.113 200.316L115.156 199.483L121.916 203.816C125.627 206.199 131.208 209.641 134.325 211.436ZM129.974 233.051C130.052 233.179 129.563 233.471 128.907 233.735L127.703 234.22L127.174 232.876C126.87 232.14 126.696 231.416 126.765 231.261C126.884 230.99 129.81 232.609 129.974 233.051ZM171.449 260.335C171.363 260.528 171.203 260.688 171.127 260.655C171.015 260.605 170.912 260.328 170.885 260.085C170.875 259.803 171.019 259.682 171.207 259.765C171.432 259.865 171.552 260.103 171.449 260.335Z" fill="#484848"/>
</g>
<defs>
<filter id="filter0_d_82_2" x="-58" y="0" width="637.483" height="555.914" filterUnits="userSpaceOnUse" color-interpolation-filters="sRGB">
<feFlood flood-opacity="0" result="BackgroundImageFix"/>
<feColorMatrix in="SourceAlpha" type="matrix" values="0 0 0 0 0 0 0 0 0 0 0 0 0 0 0 0 0 0 127 0" result="hardAlpha"/>
<feOffset dy="4"/>
<feGaussianBlur stdDeviation="2"/>
<feComposite in2="hardAlpha" operator="out"/>
<feColorMatrix type="matrix" values="0 0 0 0 0 0 0 0 0 0 0 0 0 0 0 0 0 0 0.25 0"/>
<feBlend mode="normal" in2="BackgroundImageFix" result="effect1_dropShadow_82_2"/>
<feBlend mode="normal" in="SourceGraphic" in2="effect1_dropShadow_82_2" result="shape"/>
</filter>
<clipPath id="clip0_82_2">
<rect width="526.282" height="366.247" fill="white" transform="translate(94.2338) rotate(23.8747)"/>
</clipPath>
</defs>
</svg>
