<svg width="445" height="742" viewBox="0 0 445 742" fill="none" xmlns="http://www.w3.org/2000/svg">
<g clip-path="url(#clip0_83_5)">
<path d="M261.099 142.225C261.615 144.053 264.312 148.139 265.857 149.351C267.681 150.825 271.102 151.818 273.938 151.604C276.877 151.385 276.93 151.223 274.859 147.361C272.086 142.114 267.935 139.37 263.694 139.874C261.124 140.168 260.627 140.624 261.099 142.225Z" fill="#484848"/>
<path d="M279.642 135.276C278.052 137.218 277.014 139.753 276.952 141.834C276.905 144.097 277.647 147.88 278.372 149.059C279.164 150.258 283.938 149.274 287.041 147.289C291.144 144.644 292.627 140.286 291.744 133.472C291.566 131.995 291.196 130.709 290.938 130.56C289.554 129.752 281.313 133.216 279.642 135.276Z" fill="#484848"/>
<path d="M244.677 159.635C243.816 160.586 243.83 160.768 245.223 162.718C247.086 165.378 250.2 167.276 253.277 167.668C255.277 167.878 256.156 167.68 258.681 166.268L261.679 164.608L260.276 163.047C256.464 158.804 251.366 156.558 248.069 157.524C245.976 158.14 246.013 158.115 244.677 159.635Z" fill="#484848"/>
<path d="M231 174.276C232.865 184.269 238.011 190.372 246.381 192.499C248.416 193.004 250.835 193.447 251.758 193.476L253.434 193.517L252.949 191.414C249.727 178.237 243.838 171.412 235.401 171.116C230.617 170.958 230.461 171.125 231 174.276Z" fill="#484848"/>
<path d="M278.655 154.803C278.953 155.818 279.896 157.809 280.805 159.186C283.385 163.094 286.699 164.732 291.654 164.585L293.301 164.583L292.74 162.848C290.712 156.152 286.185 151.872 281.363 152.058C278.579 152.111 278.112 152.611 278.655 154.803Z" fill="#484848"/>
<path d="M269.991 169.386C264.448 178.466 261.212 188.063 259.957 198.967C258.312 213.954 260.85 228.348 267.834 243.76L270.37 249.292L265.382 246.973C252.992 241.252 239.241 238.788 227.753 240.315C225.352 240.625 223.226 240.626 223.124 240.31C222.394 238.56 218.39 232.978 216.868 231.559C214.53 229.468 210.881 228.37 208.264 229.078C205.085 229.901 204.817 230.461 206.206 233.37C208.508 238.227 212.685 241.654 216.693 242.006C218.597 242.151 218.211 242.534 214.816 243.755C211.703 244.918 202.992 250.732 199.811 253.725C197.163 256.239 194.126 259.774 194.057 260.393C194.034 260.6 195.24 259.931 196.759 258.928C200.795 256.264 207.626 252.838 212.7 251.019C219.963 248.328 232.302 246.239 232.037 247.689C231.969 247.989 231.638 249.42 231.277 250.806C230.192 255.284 231.459 262.036 234.035 265.373L235.26 266.988L234.635 263.383C233.025 254.179 236.28 246.546 241.504 247.37C254.481 249.388 264.915 253.594 275.157 261.053L279.755 264.394L288.192 275.722C292.806 281.986 296.738 287.297 296.943 287.608C297.214 287.939 296.577 288.424 294.971 289.293C291.3 291.142 291.285 291.28 294.695 294.513C298.259 297.898 301.904 299.956 305.026 300.254L307.394 300.54L314.237 308.648C318.017 313.167 328.194 324.877 336.859 334.779C345.524 344.682 352.639 352.801 352.624 352.939C352.616 353.008 349.641 351.401 345.996 349.344C335.548 343.424 302.647 325.163 297.051 322.163C292.713 319.861 292.051 319.342 292.431 318.709C292.647 318.311 293.427 317.158 294.089 316.147C295.993 313.232 296.84 309.038 296.178 305.458C295.559 302.104 293.586 297.987 291.448 295.636C290.163 294.253 290.097 294.233 288.393 295.357C285.801 297.069 282.527 300.888 281.607 303.281C280.8 305.28 280.26 310.1 280.567 312.257C280.711 313.119 279.105 312.458 270.871 308.201L261.046 303.146L261.056 299.376L261.067 295.607L263.835 294.162C266.463 292.746 267.873 291.177 269.929 287.525C270.234 286.94 270.654 287.173 272.439 288.992C276.494 293.201 281.307 294.934 285.227 293.622C287.186 292.966 289.521 291.105 289.407 290.288C289.393 290.106 288.351 288.689 287.081 287.168C283.433 282.69 279.736 280.795 275.445 281.141C274.337 281.235 271.519 280.672 269.167 279.929C265.231 278.638 262.404 278.463 258.406 279.254C257.741 279.374 257.499 279.088 256.747 277.224C255.689 274.735 250.863 267.909 249.612 267.141C248.905 266.715 249.101 267.415 250.439 270.166C252.661 274.821 254.934 281.163 254.57 281.659C254.377 281.85 253.731 282.723 253.055 283.552C251.577 285.42 249.503 291.381 250.06 292.225C250.295 292.58 251.613 293.368 253.049 294.013L255.598 295.136L254.799 297.067C254.045 298.904 253.971 298.953 253.25 298.345C252.809 297.998 251.389 296.895 250.028 295.881L247.585 294.114L247.052 296.124L246.547 298.179L240.756 297.22C235.164 296.32 225.722 296.113 222.492 296.779C221.088 297.068 220.631 296.86 218.169 294.66C212.177 289.369 206.904 286.537 202.056 286.04L199.414 285.743L199.587 283.589C199.921 279.988 199.275 277.801 197.017 274.381C195.346 271.85 194.457 270.906 192.257 269.425C187.664 266.336 187.383 266.393 187.03 270.772C186.498 277.053 188.486 282.883 192.067 285.811C192.759 286.375 193.325 286.83 193.354 286.874C193.413 286.963 192.717 287.359 191.844 287.808C190.933 288.281 189.333 289.402 188.303 290.337L186.426 292.086L190.213 290.734C197.039 288.268 203.202 288.662 209.219 291.896C211.612 293.185 216.879 297.297 216.854 297.823C216.809 297.916 215.522 298.383 213.992 298.884C212.432 299.34 208.546 301.267 205.385 303.163L199.617 306.589L197.432 304.97C196.233 304.04 195.069 303.406 194.884 303.528C194.255 303.943 194.34 307.777 194.997 309.256C195.553 310.42 195.425 310.951 194.4 312.137C193.732 312.897 192.373 314.624 191.436 315.943C190.262 317.548 189.654 318.076 189.531 317.648C189.335 316.948 183.028 317.222 179.886 318.021C175.584 319.076 171.057 322.447 169.565 325.664C169.11 326.666 169.613 326.461 173.582 324.096C177.328 321.878 178.556 321.322 180.661 321.208L183.187 321.007L180.829 323.074C176.663 326.589 174.451 330.728 173.193 337.361L172.558 340.586L171.07 339.783C168.861 338.691 164.134 331.29 162.87 326.96C162.31 325.225 161.785 323.786 161.689 323.722C161.188 323.606 161.77 328.515 162.474 331.111C162.895 332.555 163.887 335.024 164.744 336.563C166.353 339.645 171.058 345.403 172.01 345.475C172.35 345.506 172.74 347.225 172.964 349.82C173.742 358.488 176.329 367.239 180.461 375.351C181.647 377.629 182.619 379.665 182.603 379.803C182.549 380.285 176.641 379.148 174.445 378.239C173.2 377.722 170.947 376.403 169.453 375.349C166.944 373.562 166.489 373.034 162.853 367.527L158.954 361.62L159.548 363.97C161.083 370.162 164.639 375.467 169.385 378.71C172.476 380.814 178.358 382.797 182.469 383.144L185.015 383.376L189.017 388.067C193.657 393.485 199.987 399.126 205.631 402.924L209.62 405.583L209.289 408.544C208.647 414.579 204.095 420.008 196.406 423.745C194.157 424.848 192.328 425.863 192.313 426.001C192.228 426.759 198.264 425.834 201.386 424.602C206.697 422.499 211.482 417.746 216.067 409.872C216.291 409.405 217.427 409.676 219.615 410.654L222.812 412.114L223.343 415.335C223.687 417.467 223.899 418.029 223.852 416.912C223.883 412.045 222.878 412.134 233.018 416.217C243.909 420.632 263.144 428.02 285.526 436.391C294.547 439.745 302.041 442.64 302.129 442.774C302.217 442.907 294.382 443.361 284.693 443.827C253.198 445.172 240.804 446.212 223.655 448.99C212.579 450.818 210.497 450.726 202.603 448.03C194.708 445.335 187.315 441.225 181.056 436.174C176.534 432.465 175.532 430.384 176.152 425.766C176.498 422.987 177.973 420.228 180.614 417.464C182.87 415.082 182.326 414.74 178.81 416.423C175.984 417.779 173.74 420.663 172.571 424.368L171.745 427.145L170.731 426.093C170.181 425.5 167.965 422.627 165.83 419.636C161.203 413.19 157.119 405.555 153.764 396.93C152.547 393.716 151.321 390.572 151.022 389.877C150.278 387.945 150.914 393.901 152.012 399.107C153.066 404.087 155.476 411.04 157.808 415.941C159.803 420.172 165.726 429.142 168.715 432.462C175.316 439.964 184.262 446.748 193.807 451.541C196.628 452.995 198.955 454.265 198.94 454.402C198.961 454.516 196.955 455.585 194.565 456.716C178.529 464.562 168.334 479.646 165.544 499.662C164.734 505.362 164.491 514.577 165.077 515.466C165.224 515.688 165.486 514.877 165.654 513.682C167.015 503.984 172.742 490.51 178.699 482.942L181.299 479.631L182.413 481.319C185.199 485.538 185.508 495.026 183.055 503.15C181.726 507.662 182.249 507.891 184.919 503.96C189.023 497.935 189.925 488.348 187.417 478.589L186.453 474.953L188.543 473.127C191.39 470.673 198.539 467.165 204.329 465.383C207.175 464.46 213.863 463.234 220.97 462.24L232.872 460.695L236.208 465.507C240.277 471.429 242.316 475.886 243.492 481.614C244.436 486.347 244.062 487.551 241.258 488.7C239.349 489.514 237.311 489.648 234.544 489.243C232.013 488.873 231.989 489.4 234.487 490.365C236.454 491.17 242.051 491.11 243.273 490.303C244.273 489.643 244.454 490.48 243.997 493.333C243.122 498.693 239.592 506.635 236.779 509.703C234.954 511.61 235.921 511.545 238.47 509.607C244.325 505.105 247.616 499.297 248.478 491.905C248.916 488.299 248.808 486.203 247.934 482.061C246.664 475.949 245.235 472.173 241.547 465.298C240.106 462.551 238.92 460.273 238.899 460.16C238.9 459.84 291.546 454.288 292.475 454.568C292.711 454.603 291.148 455.699 289.045 457.024C280.256 462.316 268.995 474.979 264.282 484.914C260.934 491.844 259.659 497.404 259.818 504.249C259.873 506.828 260.167 510.013 260.471 511.279C260.805 512.589 260.917 513.726 260.732 513.849C260.584 513.946 258.699 514.554 256.562 515.263C254.04 516.035 251.176 517.416 248.34 519.16C244.208 521.761 243.853 521.868 241.233 521.685C235.343 521.301 229.382 523.387 226.746 526.722L225.46 528.399L229.248 526.727C233.399 524.88 237.138 524.261 239.453 525.028L240.905 525.536L239.227 528.875C237.095 533.216 236.083 539.496 236.73 544.744C237.256 548.924 238.327 553.446 238.821 553.63C238.991 553.646 239.071 552.317 238.991 550.585C238.705 542.42 241.43 533.097 245.521 528.1C248.069 524.951 253.497 521.495 257.859 520.209C259.774 519.646 261.6 519.27 261.865 519.35C262.396 519.51 267.276 533.505 269.825 542.28C271.336 547.468 273.293 555.103 275.319 563.649L276.434 568.398L274.385 570.771C270.495 575.188 268.67 580.155 268.886 585.879C269.06 589.526 269.445 589.464 270.245 585.683C270.66 583.815 271.388 581.294 271.859 580.154C272.868 577.575 275.897 574.108 276.892 574.408C277.423 574.568 278.133 577.415 279.255 583.625C280.731 591.578 281.346 595.571 283.131 608.422C283.601 611.874 283.723 611.092 283.816 604.144C284 590.248 283.026 574.758 281.252 562.729C280.258 555.989 278.209 546.119 277.226 543.261C276.636 541.482 277.323 541.475 279.145 543.269C280.071 544.188 281.122 545.216 281.497 545.542C283.019 546.961 288.338 555.501 289.981 559.198C290.938 561.372 291.838 563.138 292 563.222C292.634 563.377 290.438 554.816 289.182 551.947C287.092 547.332 281.583 539.874 277.415 536.057L274.027 532.938L272.431 528.508C269.079 519.242 268.008 507.069 269.806 498.357C270.812 493.356 274.648 484.83 277.343 481.584L279.044 479.568L280.871 480.403C289.91 484.51 299.934 492.686 307.258 502.007C310.472 506.07 310.971 506.825 311.236 508.436C312.013 512.833 309.163 517.457 304.041 520.009C300.911 521.629 301.071 522.034 304.727 521.852C307.77 521.629 312.153 518.926 313.679 516.324C314.164 515.367 314.736 514.542 314.884 514.444C315.514 514.029 319.616 523.947 321.562 530.76C323.421 537.121 325.166 547.575 325.545 554.594L325.649 556.12L326.123 554.34C327 551.401 327.471 542.61 327.068 537.328C326.067 524.215 321.337 511.332 313.584 500.636C311.589 497.936 309.322 494.905 308.47 493.937L306.98 492.243L309.239 490.752C313.535 487.916 319.767 487.691 329.028 490.121C332.892 491.141 333.505 491.183 332.468 490.337C325.268 484.505 314.135 482.864 303.724 486.103L301.483 486.817L298.192 483.442C296.377 481.58 293.403 478.123 291.65 475.709L288.401 471.35L291.548 469.272C303.288 461.522 326.324 458.238 352.463 460.621C368.249 462.06 380.448 461.53 403.668 458.443C423.932 455.714 430.691 455.078 438.494 455.219C445.035 455.3 444.233 454.81 449.583 461.544C458.038 472.095 469.221 484.926 478.301 494.491L483.671 500.128L485.475 507.291C490.163 525.748 493.707 533.612 504.936 550.621C512.332 561.744 514.21 564.266 523.116 574.775L527.205 579.6L550.239 564.392L573.273 549.185L567.692 547.577C554.428 543.836 540.571 535.895 531.496 526.901C526.896 522.349 519.482 511.685 515.664 504.13C509.412 491.679 502.629 475.687 498.888 464.383C493.728 448.915 490.851 436.02 488.84 419.685C486.53 400.804 483.707 387.427 478.639 371.132C475.098 359.888 473.165 351.726 471.532 341.199C468.444 321.621 468.344 305.362 471.305 296.074C471.785 294.546 472.367 293.333 472.603 293.368C473.695 293.412 481.006 297.64 485.458 300.759C489.719 303.749 490.432 304.426 490.435 305.317C490.439 305.888 490.409 307.693 490.401 309.293C490.313 313.75 491.519 321.053 493.017 325.739C494.167 329.252 494.928 330.727 497.625 334.813C499.619 337.833 501.358 340.064 502.211 340.712C503.506 341.707 503.514 341.638 501.671 337.881C497.255 328.936 495.325 321.664 495.766 315.889C495.995 312.933 496.919 309.581 497.471 309.854C497.604 309.894 499.017 310.746 500.652 311.771C512.584 319.134 525.937 323.008 537.826 322.492C545.617 322.131 554.014 320.031 559.396 316.987L562.72 315.176L560.74 315.399C559.661 315.537 557.364 315.842 555.62 316.101C546.444 317.504 533.548 316.899 524.913 314.693L520.083 313.418L521.398 311.784C524.911 307.361 525.838 301.838 524.081 295.793C523.689 294.394 523.562 294.605 523.052 297.939C521.836 305.119 518.506 309.74 514.125 310.273C510.232 310.739 496.985 301.949 488.462 293.228C485.663 290.357 477.494 280.319 477.518 279.792C477.595 279.104 480.259 274.923 482.167 272.578C485.324 268.581 493.57 262.627 498.495 260.906C506.394 258.05 514.615 257.214 522.295 258.456C527.113 259.229 527.437 259.398 530.452 261.871C539.769 269.621 549.105 273.533 557.243 273.134C559.237 273.093 560.869 272.908 560.855 272.726C560.871 272.588 558.622 271.841 555.894 271.091C549.347 269.228 545.067 267.335 540.777 264.301C535.751 260.796 535.738 260.294 540.721 260.512C549.83 260.939 565.141 259.566 576.611 257.286C584.577 255.661 604.197 250.424 604.23 249.829C604.237 249.76 601.224 250.028 597.471 250.465C593.755 250.877 585.52 251.532 579.206 251.874L567.715 252.51L567.803 251.113C568.012 247.404 571.82 243.104 577.008 240.572C578.673 239.792 580.065 239 580.08 238.863C580.187 238.218 575.147 239.122 572.942 240.132C569.117 241.828 564.843 246.308 562.672 250.993C561.985 252.531 561.985 252.531 557.386 252.57C550.01 252.594 541.44 252.258 532.916 251.508C523.846 250.737 511.347 249.041 510.995 248.508C510.438 247.665 510.813 238.809 511.538 235.397C513.349 227.186 516.984 221.981 524.161 217.306C528.745 214.344 532.835 212.727 538.082 211.814C539.833 211.487 536.181 211.029 532.541 211.072C525.046 211.238 517.93 214.151 514.024 218.706C511.426 221.697 511.389 221.721 510.656 220.611C509.249 218.479 508.698 213.295 509.328 207.969C509.689 205.052 509.811 202.74 509.589 202.887C508.885 203.351 507.339 207.05 506.802 209.7C506.093 212.974 506.488 218.325 507.772 223.089C508.723 226.542 508.698 227.069 507.694 230.219C507.072 232.096 506.288 236.949 505.937 241.008L505.31 248.435L501.351 248.881C488.113 250.415 478.414 257.712 469.267 272.933C463.582 282.362 459.346 292.619 457.787 300.727L457.242 303.446L456.848 300.836C456.671 299.359 455.265 289.256 453.744 278.335C449.447 247.503 448.038 236.509 448.348 236.495C448.489 236.466 450.663 237.263 453.198 238.203C458.526 240.233 466.478 241.807 470.804 241.756C480.285 241.619 487.985 237.173 492.755 229.177C494.237 226.668 496.991 218.92 496.46 218.76C496.298 218.676 495.971 219.147 495.702 219.707C493.911 223.759 486.633 231.179 482.311 233.331C478.751 235.107 478.382 235.031 478.336 232.384C478.261 229.372 477.45 226.209 475.994 223.28C474.444 220.287 473.749 220.363 474.887 223.374C476.257 227.061 476.581 231.82 475.603 234.124L474.685 236.197L471.435 236.429C464.981 236.801 458.137 235.134 450.846 231.339L447.186 229.419L445.888 218.352C445.171 212.193 444.415 205.167 444.25 202.662C443.449 192.669 444.328 183.289 446.799 174.388L448.091 169.901L450.069 169.997C462.609 170.709 472.516 166.465 476.873 158.487C477.603 157.176 478.14 156.056 478.081 155.967C478.022 155.879 475.771 157.301 473.038 159.042C467.454 162.664 463.697 164.061 458.957 164.13C456.239 164.202 451.49 163.129 451.596 162.485C451.612 162.347 452.706 160.541 453.963 158.499C458.919 150.381 465.054 144.29 474.727 137.84L481.475 133.321L477.994 134.089C467.166 136.455 455.141 143.692 447.488 152.316C439.79 161.033 435.192 171.466 433.03 185.264L432.132 190.831L427.6 184.449C418.601 171.706 408.42 162.486 396.409 156.132C391.069 153.28 378.322 149.517 372.506 149.084C367.37 148.713 362.733 148.777 358.721 149.385C355.758 149.811 355.692 149.791 363.555 151.231C374.679 153.261 385.595 157.15 394.423 162.226L398.804 164.754L396.017 166.976C392.585 169.752 390.373 173.891 390.199 177.896C390.169 179.382 390.237 180.612 390.37 180.652C390.466 180.716 391.262 179.426 392.06 177.815C395.07 172.065 398.693 169.418 403.254 169.723C405.498 169.899 405.984 170.152 408.689 172.639C413.54 177.088 417.182 181.315 420.9 186.704L424.375 191.807L418.718 198.22C412.594 205.133 400.67 217.596 400.272 217.477C399.38 217.173 399.789 215.053 401.512 211.301C404.385 204.941 405.241 195.767 403.442 190.706C403.048 189.627 402.899 190.044 402.501 192.985C402.103 195.926 401.722 196.879 400.498 198.006C398.273 200.112 396.326 204.331 395.67 208.654L395.069 212.495L392.595 214.064C389.307 216.171 388.281 216.147 386.313 213.811C380.366 206.897 372.013 199.722 364.784 195.376L360.506 192.844L359.867 190.587C358.174 184.882 355.622 179.808 352.576 176.08C348.201 170.742 341.285 167.273 335.002 167.341L332.189 167.348L336.412 168.833C344.631 171.696 350.491 176.627 353.84 183.471C354.791 185.394 355.783 187.864 356.073 188.948L356.573 190.913L350.675 189.068C342.094 186.379 331.37 185.68 323.3 187.309C322.11 187.521 321.055 187.453 320.953 187.137C320.464 185.994 313.572 181.999 309.806 180.723C305.737 179.392 300.932 179.121 298.35 180.124L296.878 180.713L298.302 180.857C307.127 181.981 311.829 183.787 314.478 187.076L315.954 188.907L311.399 191.915C307.992 194.164 306.331 195.515 305.112 197.213C300.832 202.972 299.04 210.405 299.787 219.349C299.981 221.899 300.281 224.124 300.427 224.346C300.574 224.568 300.853 223.3 301.091 221.485C301.95 214.732 304.667 208.539 308.966 203.532C311.913 200.184 318.954 196.109 323.921 194.934C331.216 193.179 340.823 194.361 349.827 198.173L354.705 200.245L351.9 203.245C350.349 204.842 348.433 207.255 347.607 208.502C345.479 211.883 343.551 218.386 343.562 222.268C343.59 224.163 343.479 225.766 343.33 225.864C343.212 226.006 342.763 225.729 342.321 225.383C341.733 224.814 341.672 223.835 342.023 221.307C342.321 219.261 342.187 216.48 341.741 214.033C341.1 210.566 340.72 209.669 338.785 206.738C336.293 202.963 333.736 200.379 332.959 200.892C331.736 201.699 329.012 207.961 328.48 211.182C327.429 217.806 328.741 222.934 333.344 229.907C334.957 232.349 336.483 234.339 336.822 234.37C337.095 234.381 337.958 233.11 338.682 231.548C339.405 229.986 340.268 228.715 340.474 228.706C340.748 228.717 341.755 229.519 342.681 230.438C344.129 231.905 344.502 232.552 345.112 234.764C346.178 238.715 348.837 244.675 351.715 249.598L354.307 254.008L353.061 255.341C352.363 256.057 351.093 257.597 350.209 258.754L348.605 260.834L344.008 260.234C341.507 259.909 338.008 259.604 336.237 259.498L333.063 259.362L333.649 257.189C335.055 251.989 334.888 245.212 333.25 238.705C331.938 233.577 331.067 232.176 331.419 235.769C332.116 242.706 331.043 251.066 328.711 256.878L327.755 259.295L326.318 257.119C325.556 255.964 324.139 254.221 323.184 253.258C321.399 251.439 317.115 248.656 317.046 249.276C316.993 249.438 318.007 250.49 319.228 251.534C321.352 253.383 325.167 258.517 325.067 259.412C325.007 259.643 323.476 260.143 321.68 260.564L318.31 261.258L315.514 259.278C312.372 257.016 309.821 256.213 307.471 256.681L305.853 257.048L308.846 257.877C311.508 258.607 315.276 261.093 315.139 262.013C315.123 262.15 314.065 262.722 312.778 263.189C310.448 264.089 302.411 269.715 301.281 271.225C300.753 271.956 300.525 271.852 298.749 269.645C297.729 268.342 296.863 267.192 296.879 267.054C296.857 266.941 297.686 266.585 298.684 266.244C299.963 265.846 300.904 265.097 302.174 263.558C303.125 262.42 303.898 261.336 303.913 261.198C303.983 260.578 299.372 258.266 296.938 257.641C294.77 257.095 291.86 257.358 290.564 258.214C290.305 258.385 289.078 257.091 287.501 254.944C279.673 244.617 274.083 233.895 270.77 222.756L269.839 219.735L272.078 217.811C280.677 210.539 284.581 201.713 283.75 191.676C283.56 189.697 283.295 188.087 283.096 188.027C282.963 187.987 282.514 189.24 282.196 190.853C281.289 195.277 279.553 200.058 277.648 203.293C276.367 205.541 275.202 206.757 272.735 208.577C270.979 209.864 269.18 210.924 268.737 210.898C268.095 210.811 267.82 209.59 267.459 204.854C266.502 193.498 267.986 181.168 271.576 169.934C272.452 167.315 272.883 165.309 272.624 165.48C272.394 165.696 271.204 167.438 269.991 169.386ZM361.462 204.52C369.836 210.278 376.478 217.116 382.518 226.265L385.626 230.972L383.35 232.921C382.031 233.983 377.326 237.408 372.822 240.573C368.318 243.738 363.251 247.338 361.532 248.601L358.361 250.886L355.81 247.022L353.259 243.158L357.638 239.885C360.031 238.113 362.664 235.738 363.54 234.649C368.376 228.523 369.297 221.22 366.173 213.589C365.545 212.154 364.865 210.882 364.607 210.733C364.349 210.585 362.922 211.081 361.398 211.832C353.619 215.756 349.214 224.467 350.44 233.733C350.625 235.141 350.693 236.372 350.619 236.42C350.36 236.592 348.969 230.942 348.699 228.761C347.699 220.238 349.235 212.337 353.472 204.821C354.463 203.019 355.504 201.375 355.726 201.228C355.956 201.013 358.563 202.544 361.462 204.52ZM184.979 329.198C183.384 335.48 183.946 343.016 186.523 349.094C187.523 351.495 187.521 351.814 186.511 353.183C185.107 355.003 185.722 355.936 189.683 358.23C192.032 359.613 193.003 360.439 194.117 362.127C194.908 363.326 195.739 364.18 195.924 364.058C196.146 363.912 195.825 363.103 195.268 362.259C194.095 360.483 194.378 360.105 196.576 360.375C199.425 360.663 202.553 359.682 206.145 357.31C208.996 355.428 212.77 352.043 212.892 351.261C212.991 350.686 208.69 348.36 205.587 347.284C201.297 345.78 196.557 345.849 193.323 347.474C192.087 348.099 190.948 348.468 190.831 348.29C190.362 347.58 190.07 340.694 190.422 338.166L190.752 335.525L192.523 337.162C195.559 340.068 200.598 340.694 205.038 338.72L206.954 337.837L205.01 335.295C203.931 333.903 202.167 332.197 201.048 331.469C198.877 330.033 194.651 329.189 193.503 329.947C190.577 331.878 194.879 323.172 199.281 318.161L200.179 317.186L200.259 318.918C200.44 321.286 201.178 322.967 202.787 324.519C205.117 326.679 205.486 326.754 206.247 325.168C207.336 322.791 206.535 320.45 203.517 317.086C202.298 315.723 202.1 315.343 202.545 315.05C202.841 314.854 203.682 315.001 204.359 315.382C206.046 316.246 208.816 316.011 210.593 314.838C211.371 314.324 212.574 312.764 213.275 311.409L214.541 308.979L218.377 308.104L222.213 307.23L223.65 309.406C226.289 313.403 226.769 313.405 228.552 309.421L229.768 306.833L232.057 306.916L234.345 307L233.054 309.957C231.591 313.218 230.35 317.863 230.062 321.051C229.843 323.618 229.695 323.716 228.238 322.637C226.745 321.583 225.191 319.229 224.616 317.313C224.079 315.371 223.57 315.325 223.76 317.304C223.97 319.716 225.39 322.35 227.675 324.603L229.681 326.595L230.029 331.148C230.848 341.894 235.457 357.089 241.549 369.136L242.705 371.37L240.77 373.03C237.775 375.581 232.743 381.007 230.714 383.813L228.849 386.384L226.311 386.083C223.536 385.747 221.073 386.607 219.256 388.445C217.66 390.136 218.352 390.7 220.351 389.38C222.166 388.182 225.638 387.803 226.675 388.648C227.145 389.039 227.008 389.959 226.135 391.938C225.456 393.407 224.543 396.05 224.106 397.805C223.677 399.491 223.08 400.842 222.785 400.718C222.52 400.638 220.597 399.739 218.505 398.825C210.769 395.323 203.998 390.866 197.926 385.374C194.567 382.299 193.906 381.46 189.01 374.043C183.226 365.363 182.005 362.789 180.099 355.312C177.678 346.006 178.924 335.491 183.328 328.63C185.738 324.87 186.07 324.97 184.979 329.198ZM401.53 198.281C401.637 199.167 399.173 206.469 398.812 206.325C398.509 206.269 400.896 198.126 401.303 197.857C401.414 197.783 401.532 197.961 401.53 198.281ZM240.128 308.028C245.528 309.118 250.502 310.935 252.982 312.678C254.189 313.539 255.559 314.165 256.017 314.054C257.03 313.895 263.542 316.993 274.308 322.83C294.942 333.949 316.855 347.731 355.792 374.25C375.647 387.732 382.957 392.28 388.705 394.543C389.656 394.936 390.429 395.382 390.376 395.544C390.336 396.208 381.027 396.041 376.098 395.342C366.891 393.96 353.298 389.479 340.944 383.734C334.623 380.765 323.826 375.203 323.924 374.948C323.968 374.854 324.356 374.152 324.817 373.401C325.212 372.63 325.504 371.864 325.386 371.686C325.269 371.509 324.275 370.889 323.17 370.344C321.388 369.416 321.05 369.065 320.416 367.38C317.93 360.795 313.285 353.276 309.163 349.047C306.606 346.462 302.17 343.206 299.871 342.301C298.721 341.848 298.721 341.848 299.94 343.211C300.645 343.957 302.445 345.958 303.906 347.607C307.27 351.253 311.383 357.402 312.872 360.946L314.018 363.569L312.255 361.864C311.262 360.924 309.534 359.515 308.386 358.742L306.273 357.395L305.951 359.967C305.789 361.413 305.817 363.308 305.998 364.145C306.245 365.002 306.329 365.775 306.181 365.873C306.07 365.947 304.663 365.345 303.109 364.522C301.584 363.743 298.91 362.511 297.171 361.81C294.585 360.712 293.982 360.281 293.846 359.351C293.537 357.514 293.147 357.325 290.463 358.013C288.771 358.429 286.681 358.405 284.365 357.958C277.793 356.621 272.181 356.819 267.123 358.501C265.341 359.103 264.448 359.119 264.125 358.631C263.744 358.053 263.67 358.102 263.733 358.762C263.796 359.422 263.27 359.833 260.57 360.978C258.735 361.743 255.094 363.637 252.414 365.215C249.696 366.818 247.439 367.989 247.351 367.856C247.292 367.767 246.99 366.181 246.652 364.3C245.676 358.312 246.313 350.176 248.393 342.936C249.024 340.671 248.973 340.513 248.158 341.051C245.492 342.811 242.317 349.116 241.465 354.27C241.244 355.627 240.908 356.486 240.732 356.22C239.999 355.11 236.707 344.083 235.646 339.173C233.486 329.056 233.305 317.506 235.259 310.478C235.709 308.905 236.136 307.539 236.285 307.441C236.433 307.343 238.152 307.611 240.128 308.028ZM310.854 268.731C313.761 267.577 315.602 267.063 321.589 265.661C322.402 265.443 322.432 265.488 321.785 266.361C320.7 267.778 317.005 270.155 313.979 271.451C310.813 272.776 304.656 274.162 303.04 273.89C302.03 273.728 302.222 273.537 304.674 271.855C306.193 270.852 308.99 269.452 310.854 268.731ZM426.842 196.108C427.889 198.096 429.577 201.7 430.577 204.101C432.197 208.005 432.486 209.408 433.057 216.556C435.063 240.292 436.986 253.434 444.623 294.56C446.825 306.433 448.586 316.43 448.577 316.819C448.531 317.232 447.995 316.501 447.109 314.918C446.341 313.512 442.563 306.824 438.69 300.071C428.622 282.486 429.454 284.551 430.986 280.67C431.703 278.858 432.146 277.354 432.014 277.314C431.918 277.249 431.012 278.294 430.039 279.638L428.3 281.998L426.96 279.566C425.767 277.356 421.118 269.267 409.723 249.752C405.607 242.713 405.294 241.836 406.487 240.985C406.746 240.814 406.711 240.518 406.453 240.369C406.166 240.176 405.604 240.292 405.197 240.561C404.53 241.001 404.347 240.804 401.402 235.861C399.762 233.054 398.364 230.533 398.395 230.258C398.418 230.051 400.505 227.334 403.008 224.279C408.607 217.457 415.521 207.472 420.234 199.388C422.184 196.059 424.051 193.169 424.355 192.904C424.807 192.542 425.137 192.962 426.842 196.108ZM396.291 220.87C396.354 221.53 394.063 223.616 393.77 223.172C393.652 222.995 393.847 222.484 394.27 222.077C395.516 220.744 396.212 220.348 396.291 220.87ZM312.3 278.171C316.752 276.698 326.232 270.439 328.713 267.271L330.585 264.951L333.051 264.981C337.089 265.057 345.31 265.751 345.486 266.017C345.926 266.683 343.553 270.418 341.431 272.52C340.089 273.789 338.506 275.982 337.664 277.686L336.269 280.648L339.245 278.874L342.222 277.1L341.873 282.049L341.562 286.973L339.749 286.321C338.761 285.953 337.44 285.805 336.767 285.994C335.592 286.387 335.584 286.456 336.786 288.277C338.047 290.187 339.554 291.423 340.942 291.591C341.613 291.722 341.817 292.353 341.922 295.089C342.144 299.534 343.621 310.228 344.647 314.843C345.073 316.857 345.504 319.443 345.513 320.584C345.493 321.682 345.783 322.765 346.108 322.934C346.432 323.103 347.111 324.695 347.729 326.518C348.319 328.297 349.194 330.589 349.662 331.619C350.137 332.581 350.472 333.571 350.412 333.802C350.277 334.082 338.349 319.639 337 317.596C336.795 317.285 337.167 316.721 337.944 316.208C339.685 315.058 340.774 312.681 340.623 310.358C340.45 307.922 339.842 306.92 338.506 306.91C336.889 306.957 333.599 309.384 333.164 310.819C332.946 311.536 332.649 312.052 332.545 312.056C332.449 311.992 327.18 305.46 320.868 297.511C314.557 289.562 308.81 282.388 308.054 281.484C306.688 279.899 306.688 279.899 307.96 279.57C308.67 279.356 310.629 278.7 312.3 278.171ZM390.902 239.286C391.172 239.936 391.97 241.386 392.732 242.541C393.67 243.962 393.991 244.771 393.695 244.966C392.917 245.48 386.781 245.769 384.523 245.41L382.435 245.067L385.631 242.256C390.613 237.882 390.428 238.004 390.902 239.286ZM374.102 250.888C374.916 250.35 374.946 250.394 375.328 253.712C376.35 262.348 381.329 269.646 389.456 274.547L392.254 276.207L392.432 272.773C392.858 265.606 391.057 257.803 387.927 252.983C386.432 250.718 386.33 250.402 387.099 250.278C387.934 250.173 394.422 248.886 395.553 248.586C395.871 248.504 396.584 249.181 397.346 250.335C399.948 254.357 410.412 273.912 416.335 285.943C417.71 288.67 418.917 291.062 419.063 291.284C419.356 291.728 413.671 296.566 413.073 296.386C412.837 296.351 412.643 295.331 412.634 294.19C412.519 288.781 410.193 281.07 407.467 276.94L406.059 274.809L407.363 281.536C408.719 288.421 408.956 294.258 408.089 298.019C407.667 299.956 407.429 300.24 405.327 301.245L403.004 302.397L401.977 300.842C401.42 299.999 400.692 297.929 400.331 296.254C399.61 292.585 396.99 287.811 394.351 285.344L392.55 283.664L393.851 286.439C395.641 290.359 395.293 290.717 393.064 287.342C389.37 281.746 381.441 273.844 375.885 270.18C372.116 267.694 370.813 267.088 365.137 265.096L360.154 263.348L361.804 261.175C364.382 257.751 368.402 254.013 370.918 252.67C372.191 252.021 373.62 251.205 374.102 250.888ZM362.773 271.503C366.508 271.843 370.788 273.736 374.149 276.491C377.002 278.879 383.996 286.251 384.051 286.979C384.124 287.25 383.179 288.639 381.999 289.992C377.091 295.847 370.476 297.345 361.622 294.645L356.881 293.184L359.531 294.942C367.567 300.349 375.297 300.539 381.448 295.521C382.879 294.385 384.622 292.596 385.343 291.674L386.636 289.928L389.094 293.087C390.437 294.879 392.512 297.781 393.714 299.602C395.796 302.755 395.847 302.913 395.177 303.993C393.451 306.854 381.537 307.897 370.751 306.218C366.273 305.476 357.249 302.761 354.134 301.183L351.828 300.027L351.445 296.709C350.686 290.323 352.082 279.39 354.39 273.785L355.271 271.737L357.458 271.505C358.677 271.338 361.039 271.372 362.773 271.503ZM246.858 378.384C247.561 379.45 248.861 381.016 249.749 381.959C251.293 383.491 251.424 383.851 251.661 386.627L251.942 389.63L249.572 388.134C245.995 385.777 243.792 384.936 240.405 384.558L237.32 384.235L238.493 382.95C239.51 381.833 241 380.466 245.211 376.857C245.478 376.617 246.066 377.185 246.858 378.384ZM254.261 371.074C254.378 371.251 252.53 376.425 252.271 376.596C252.196 376.645 251.653 375.983 251.096 375.14L250.07 373.585L252.107 372.241C253.218 371.507 254.202 370.985 254.261 371.074ZM267.745 367.336C269.343 372.977 269.115 377.464 267.056 381.756C266.198 383.598 265.186 385.286 264.779 385.555C264.26 385.898 263.06 385.287 260.227 383.332L256.341 380.668L256.775 379.553C258.731 374.945 263.101 369 266.005 366.955C267.309 366.03 267.375 366.05 267.745 367.336ZM274.333 363.944C275.987 363.872 278.238 363.98 279.241 364.21C281.019 364.567 281.048 364.612 280.733 365.585C279.343 369.117 279.688 377.37 281.271 379.769C281.711 380.435 284.243 380.485 287.435 379.844C288.307 379.714 288.292 379.852 287.525 381.187C285.47 384.84 281.196 387.789 275.509 389.566C274.511 389.907 274.54 389.951 276.171 390.086C279.256 390.409 283.219 389.323 286.107 387.416C290.329 384.629 291.677 382.081 293.99 372.455C295.022 368.139 294.534 368.206 302.02 371.49C305.416 373.01 307.058 373.967 306.783 374.276C306.612 374.58 305.98 375.635 305.384 376.666C304.401 378.399 304.415 378.581 305.416 379.132C307.449 380.277 309.938 380.1 311.886 378.622C313.576 377.316 313.783 377.307 315.329 378.199C318.488 380.003 322.514 387.229 323.184 392.271L323.503 394.929L319.713 392.33L315.961 389.706L317.524 391.671L319.153 393.656L314.288 392.086C311.612 391.174 307.571 390.208 305.247 389.829C300.658 389.16 293.188 388.799 293.134 389.281C293.119 389.419 296.089 390.455 299.746 391.484C316.077 396.325 329.048 404.214 339.404 415.55C341.049 417.397 341.078 417.442 340.115 418.078C339.375 418.567 338.571 418.396 336.634 417.315C329.204 413.229 308.602 404.576 293.323 399.232C288.672 397.583 283.336 395.622 281.568 394.877C277.537 393.202 267.498 388.224 267.566 387.924C267.581 387.786 268.453 386.127 269.393 384.167C272.21 378.609 272.463 372.065 270.014 366.986C269.378 365.621 269.416 365.276 270.268 364.714C270.824 364.347 272.612 363.996 274.333 363.944ZM232.87 393.039C237.784 398.468 245.558 400.095 254.208 397.572L257.542 396.582L257.008 395.532C256.731 394.95 255.703 393.715 254.785 392.727C253.279 391.171 253.14 390.88 253.411 389.681C254.15 386.451 254.047 386.455 258.948 389.851C264.798 393.96 267.162 395.205 276.092 399.066C284.469 402.654 284.44 402.61 279.979 406.001C278.215 407.357 276.394 408.304 274.413 408.847C271.256 409.783 264.187 410.432 261.347 410.076C258.166 409.689 259.461 410.683 263.848 411.932C271.486 414.159 277.952 413.078 286.347 408.237L291.263 405.374L299.773 409.002C321.031 417.924 336.627 428.096 346.349 439.278C347.2 440.246 347.794 441.065 347.683 441.139C347.609 441.188 346.032 440.571 344.205 439.736C337.811 436.816 334.862 435.894 313.095 429.986C287.266 422.998 259.987 414.863 248.084 410.606C238.458 407.141 226.601 402.471 226.279 401.982C226.044 401.627 230.54 392.409 231.296 391.783C231.415 391.64 232.136 392.249 232.87 393.039ZM362.686 314.54C364.673 314.248 366.343 314.038 366.417 313.989C366.454 313.965 366.608 314.118 366.784 314.385C366.931 314.607 366.855 314.975 366.596 315.147C365.078 316.149 363.533 327.18 364.677 328.912C365.146 329.622 371.565 328.956 375.018 327.823C376.652 327.318 378.688 326.294 379.563 325.525L381.223 324.174L382.464 325.65C387.479 331.394 392.289 335.297 397.409 337.655L400.178 338.951L401.728 342.265C402.62 344.099 404.552 347.67 406.083 350.23C407.782 353.126 408.637 354.984 408.377 355.156C408.155 355.302 406.796 355.498 405.378 355.606C402.372 355.805 398.617 355.031 394.491 353.291C392.561 352.462 391.823 352.311 392.204 352.888C394.353 356.061 402.29 358.983 408.146 358.752C411.801 358.57 411.868 358.59 413.468 360.531C420.428 368.817 430.888 376.769 441.304 381.753C447.388 384.686 457.545 388.311 463.393 389.679C466.299 390.375 468.658 391.049 468.738 391.252C468.789 391.409 469.316 397.12 469.859 403.903C470.44 410.661 471.423 421.172 472.118 427.217C472.775 433.287 473.313 438.289 473.334 438.402C473.356 438.516 471.791 438.401 469.865 438.142C467.903 437.907 463.039 437.547 459.008 437.403L451.693 437.195L449.235 434.035C438.61 420.198 435.704 416.441 433.164 413.399C421.97 399.746 415.168 392.503 403.296 381.849C399.745 378.646 395.342 374.474 393.469 372.523C389.81 368.753 380.595 358.257 377.476 354.258L375.553 351.829L377.692 352.33C380 352.847 383.083 351.959 384.147 350.429C384.592 349.815 384.484 349.249 383.81 348.227C380.966 343.92 375.905 341.65 371.89 342.898L369.612 343.636L367.091 339.817C364.012 335.154 360.514 328.727 358.455 323.837C357.038 320.564 356.952 320.111 357.674 318.869C358.106 318.073 358.577 316.934 358.72 316.265C358.893 315.641 359.029 315.041 359.029 315.041C359.066 315.017 360.706 314.763 362.686 314.54ZM390.9 313.703C393.693 313.262 397.063 312.568 398.35 312.101C399.6 311.658 400.702 311.313 400.768 311.333C400.835 311.353 402.379 314.096 404.194 317.489C411.373 330.859 416.522 339.384 427.253 355.638C433.323 364.831 438.27 372.405 438.233 372.43C438.196 372.454 436.716 371.582 434.949 370.516C424.842 364.308 414.894 354.233 406.889 342.109C403.107 336.38 398.357 327.655 396.116 322.248C395.467 320.7 394.889 319.423 394.815 319.472C394.519 319.668 395.993 326.41 397.237 330.308C397.934 332.653 398.552 334.796 398.521 335.072C398.495 335.918 391.767 330.157 388.756 326.725C385.136 322.61 383.857 319.948 384.144 317.08C384.245 315.865 384.679 314.75 385.063 314.688C385.418 314.581 388.041 314.124 390.9 313.703ZM421.9 297.191C422.721 298.434 443.756 343.021 448 352.59C448.906 354.607 451.856 359.801 454.56 364.138C460.114 373.033 460.077 373.057 453.977 368.731C447.398 364.083 439.103 355.786 431.125 345.877C427.33 341.176 411.46 317.219 410.358 314.503C409.898 313.404 409.986 312.007 410.611 309.49C411.52 306.275 411.765 305.922 414.486 303.68C416.109 302.353 418.252 300.364 419.269 299.247C420.286 298.129 421.191 297.085 421.347 296.918C421.495 296.82 421.724 296.924 421.9 297.191ZM324.885 383.814C327.263 385.241 329.288 386.455 329.376 386.589C329.434 386.677 329.393 387.661 329.269 388.763C329.146 389.865 329.359 391.637 329.782 392.761C330.81 395.526 332.606 398.166 333.198 397.775C334.42 396.968 335.865 394.484 336.213 392.596L336.585 390.501L345.887 395.328C356.522 400.805 363.203 403.919 370.86 406.898C373.786 408.028 376.165 409.135 376.142 409.341C376.08 409.892 366.828 410.134 362.452 409.707C351.973 408.655 341.167 405.012 330.262 398.884L326.684 396.847L326.187 394.242C325.387 390.051 323.673 385.763 321.904 383.487C321.001 382.361 320.319 381.408 320.393 381.359C320.468 381.311 322.47 382.411 324.885 383.814ZM345.201 412.169C345.348 412.391 345.42 412.662 345.346 412.711C345.235 412.785 344.903 412.685 344.645 412.536C344.358 412.343 344.315 412.116 344.5 411.994C344.723 411.847 345.025 411.903 345.201 412.169ZM354.709 415.457C370.239 419.488 386.404 417.233 403.743 408.783C407.954 406.704 408.057 406.7 408.79 407.81C409.758 409.276 424.487 429.331 428.096 434.153L430.936 437.89L426.925 438.178C409.487 439.552 388.602 442.309 367.572 446.054C366.382 446.266 365.237 446.384 365.001 446.349C364.765 446.313 364.034 444.883 363.325 443.246C361.041 437.612 356.518 429.312 352.238 422.828C349.863 419.23 347.951 416.093 348.011 415.862C348.173 414.416 350.108 414.286 354.709 415.457ZM343.612 420.233C343.759 420.455 343.757 420.775 343.535 420.921C343.35 421.044 343.018 420.944 342.871 420.722C342.695 420.455 342.763 420.155 342.948 420.033C343.171 419.886 343.436 419.966 343.612 420.233Z" fill="#484848"/>
<path d="M205.312 369.338C203.085 371.765 201.16 376.097 200.558 379.937L200.017 383.547L202.037 384.19C204.779 385.122 209.579 384.822 212.221 383.588C215.077 382.277 217.66 379.424 219.65 375.431C221.148 372.465 223.203 365.752 222.927 364.85C222.724 364.22 216.906 364.107 214.135 364.661C211.083 365.273 207.108 367.387 205.312 369.338Z" fill="#484848"/>
<path d="M246.746 332.227C247.163 334.63 248.609 336.417 250.746 337.238C252.426 337.85 252.5 337.801 252.624 336.7C252.846 335.023 251.188 332.673 249.037 331.67C247.056 330.683 246.561 330.819 246.746 332.227Z" fill="#484848"/>
<path d="M254.299 332.15C253.309 333.952 253.317 336.944 254.304 337.312C255.653 337.825 257.944 337.268 259.027 336.171C260.192 334.955 261.231 330.89 260.615 329.957C259.647 328.492 255.469 329.975 254.299 332.15Z" fill="#484848"/>
<path d="M253.301 340.142C253.689 342.501 254.701 343.873 256.565 344.683C258.333 345.429 258.903 345.244 258.836 343.694C258.824 341.661 256.333 339.097 253.884 338.609C253.147 338.459 253.05 338.714 253.301 340.142Z" fill="#484848"/>
<path d="M270.778 332.303C269.98 333.913 269.782 336.595 270.427 337.572C270.955 338.371 273.643 338.254 275.05 337.325C276.532 336.347 277.316 334.554 277.573 331.642C277.792 329.075 277.476 328.837 274.638 329.371C272.532 329.805 271.635 330.461 270.778 332.303Z" fill="#484848"/>
<path d="M277.023 344.823C275.972 346.856 275.84 349.876 276.651 353.039C277.326 355.591 277.201 355.482 279.025 355.426C280.952 355.365 283.729 353.531 284.535 351.852C285.818 348.964 285.255 340.217 283.757 340.122C283.38 340.116 281.974 340.725 280.546 341.541C278.569 342.654 277.76 343.443 277.023 344.823Z" fill="#484848"/>
<path d="M407.937 228.039C407.482 236.693 409.871 243.533 415.329 249.303C417.261 251.344 421.439 254.452 423.811 255.628C424.982 256.194 424.982 256.194 425.164 253.65C425.411 249.917 425.047 245.821 424.144 241.634C423.133 236.882 420.3 231.865 416.903 228.815C414.786 226.897 409.705 224.194 408.648 224.445C408.33 224.527 408.012 226.14 407.937 228.039Z" fill="#484848"/>
<path d="M327.03 281.072C327.844 283.914 330.984 286.496 333.157 286.082C334.908 285.755 334.939 285.479 333.326 283.037C332.241 281.394 331.638 280.963 329.78 280.404C327.259 279.645 326.66 279.786 327.03 281.072Z" fill="#484848"/>
<path d="M329.18 290.046C328.145 291.941 328.275 297.212 329.336 297.531C329.602 297.611 331.023 296.864 332.504 295.886C334.837 294.346 335.268 293.871 335.459 292.469C335.78 290.217 335.076 287.62 334.147 287.341C333.218 287.061 329.821 288.922 329.18 290.046Z" fill="#484848"/>
<path d="M385.076 339.675C383.409 342.626 383.759 346.539 385.919 348.684C387.125 349.865 388.198 349.156 389.504 346.381C390.622 344.049 390.5 341.77 389.024 338.728C388.044 336.76 388.014 336.716 386.977 337.4C386.414 337.836 385.546 338.856 385.076 339.675Z" fill="#484848"/>
<path d="M384.373 353.913C383.239 356.384 383.328 359.578 384.618 361.532C386.025 363.664 386.821 363.903 388.105 362.545C390.353 360.232 390.327 356.487 388.01 352.979C386.427 350.581 385.895 350.741 384.373 353.913Z" fill="#484848"/>
<path d="M401.079 366.733C399.9 369.297 399.987 369.75 402.005 370.713C406.897 372.968 410.372 371.949 413.103 367.468C414.122 365.71 413.8 365.222 411.066 364.221C406.348 362.553 402.534 363.541 401.079 366.733Z" fill="#484848"/>
<path d="M220.671 203.733C225.604 217.247 234.261 225.688 246.229 228.755C248.464 229.32 251.983 229.738 253.977 229.697L257.617 229.654L257.128 228.51C254.682 222.792 253.577 220.715 250.381 215.875C243.813 205.927 237.67 201.374 229.208 200.074C226.441 199.668 221.109 200.128 219.998 200.862C219.85 200.96 220.183 202.27 220.671 203.733Z" fill="#484848"/>
<path d="M316.967 140.668C318.169 142.489 323.527 147.624 326.227 149.54C332.261 153.846 337.743 154.499 342.468 151.507C343.912 150.554 345.453 149.345 345.929 148.776L346.768 147.712L344.435 144.661C338.793 137.162 331.462 134.032 324.416 136.005C321.614 136.835 316.527 140.002 316.967 140.668Z" fill="#484848"/>
<path d="M274.213 175.781C275.767 178.135 279.261 180.93 281.671 181.762C284.339 182.742 287.524 182.17 289.053 180.459C290.078 179.272 289.456 178.089 286.317 175.187C282.995 172.088 278.021 171.481 274.651 173.706C273.503 174.464 273.48 174.671 274.213 175.781Z" fill="#484848"/>
<path d="M348.59 126.55C345.477 130.454 344.211 134.415 344.856 138.452C345.178 140.471 348.893 146.5 350.087 146.859C350.95 147.119 354.199 143.826 355.281 141.517C357.228 137.299 356.441 132.079 353.194 127.081C350.819 123.484 351.018 123.544 348.59 126.55Z" fill="#484848"/>
<path d="M176.191 246.299C175.359 253.416 177.063 258.413 181.558 261.758C182.824 262.708 184.532 263.685 185.299 263.88L186.766 264.25L187.525 261.454C188.886 256.347 188.088 251.836 185.065 247.901C183.179 245.448 177.905 241.405 177.201 241.87C176.905 242.065 176.512 244.047 176.191 246.299Z" fill="#484848"/>
<path d="M290.244 169.215C288.357 171.672 288.872 176.561 291.247 178.628C292.027 179.325 292.307 179.267 293.279 178.243C295.832 175.665 296.142 172.591 294.189 168.587C293.247 166.595 293.18 166.575 292.173 167.304C291.617 167.671 290.764 168.553 290.244 169.215Z" fill="#484848"/>
<path d="M185.993 238.998C186.146 239.471 187.032 241.055 188 242.52C190.14 245.762 192.657 247.48 195.646 247.739C197.277 247.874 200.468 247.552 200.986 247.21C201.023 247.186 200.475 245.953 199.707 244.547C197.147 239.542 193.152 236.632 189.414 236.931C186.888 237.132 185.674 237.87 185.993 238.998Z" fill="#484848"/>
<path d="M360.655 127.831C360.792 131.502 361.894 134.218 364.025 136.318C365.885 138.088 368.395 139.555 370.343 139.927C371.552 140.149 371.626 140.1 371.603 138.776C371.6 136.355 370.753 132.897 369.693 130.727C368.339 128.114 365.359 125.936 362.394 125.471L360.505 125.187L360.655 127.831Z" fill="#484848"/>
<path d="M159.244 268.392C157.765 270.58 156.175 274.052 156.469 274.497C156.527 274.585 158.118 275.384 159.982 276.194C171.94 281.5 180.471 279.119 183.344 269.698C183.771 268.332 183.925 266.955 183.72 266.644C183.104 265.711 178.685 263.528 175.729 262.674C170.973 261.35 168.195 261.653 164.19 264.043C161.472 265.645 160.442 266.581 159.244 268.392Z" fill="#484848"/>
<path d="M289.615 183.404C288.026 186.876 288.534 190.303 290.878 192.646C292.112 193.871 293.215 193.207 294.306 190.51C295.292 188.137 294.855 185.301 293.125 182.681C292.041 181.037 291.783 180.889 291.079 181.353C290.627 181.715 289.981 182.589 289.615 183.404Z" fill="#484848"/>
<path d="M347.711 152.764C345.144 157.01 344.465 160.009 345.215 163.722C345.763 166.485 346.121 167.269 347.772 169.367C348.784 170.74 350.107 172.098 350.681 172.485C351.542 173.064 351.793 172.962 352.966 171.677C357.368 166.667 357.539 160.241 353.317 153.846C351.265 150.737 350.075 149.418 349.593 149.736C349.512 149.854 348.641 151.193 347.711 152.764Z" fill="#484848"/>
<path d="M382.576 130.831C382.687 138.409 386.875 144.189 393.621 146.112L395.848 146.746L395.765 144.123C395.414 135.618 390.528 129.023 384.254 128.702L382.549 128.616L382.576 130.831Z" fill="#484848"/>
<path d="M407.717 135.084C406.628 145.113 408.015 151.403 413.117 159.13C416.137 163.704 419.583 167.232 424.189 170.504L427.742 173.068L428.341 166.806C429.146 159.005 428.601 152.542 426.774 147.117C424.612 140.701 420.394 134.876 415.537 131.707C413.174 130.142 409.167 128.26 408.797 128.505C408.611 128.627 408.139 131.617 407.717 135.084Z" fill="#484848"/>
<path d="M151.341 303.134C150.335 308.134 152.299 312.64 156.723 315.395C158.034 316.251 159.271 316.837 159.456 316.715C159.604 316.617 159.95 315.369 160.178 313.943C160.689 310.608 159.874 308.086 157.376 305.59C155.833 304.058 152 301.232 151.74 301.403C151.703 301.428 151.515 302.19 151.341 303.134Z" fill="#484848"/>
<path d="M433.389 117.752C432.761 119.378 432.084 122.057 431.877 123.597C431.063 130.256 434.976 137.875 441.76 142.834L443.754 144.324L444.56 142.324C447.967 133.954 447.367 125.231 442.969 120.1C440.487 117.147 435.704 113.929 434.778 114.54C434.667 114.613 434.025 116.057 433.389 117.752Z" fill="#484848"/>
<path d="M170.677 298.594C170.399 299.543 170.487 299.676 171.863 300.553C173.968 301.969 176.726 302.763 178.565 302.569C180.611 302.366 184.047 300.161 183.549 299.406C182.904 298.429 178.204 296.303 176.27 296.113C173.931 295.872 171.008 297.164 170.677 298.594Z" fill="#484848"/>
<path d="M287.009 226.573C288.24 228.438 290.867 230.403 292.857 231.002C294.715 231.561 295.306 231.489 296.751 230.536C298.38 229.46 298.425 229.367 297.633 228.168C297.193 227.502 295.951 226.345 294.84 225.548C293.317 224.449 292.388 224.17 290.726 224.31C287.956 224.545 286.335 225.552 287.009 226.573Z" fill="#484848"/>
<path d="M311.637 214.586C311.329 218.871 311.821 220.905 313.873 224.014C315.691 226.767 318.324 228.983 321.337 230.245L322.811 230.866L323.078 227.566C323.212 225.755 323.113 223.27 322.905 222.068C322.351 219.055 320.419 215.484 318.624 214.054C316.697 212.585 312.939 210.92 312.31 211.336C312.051 211.507 311.748 212.982 311.637 214.586Z" fill="#484848"/>
<path d="M151.002 319.937C149.752 321.91 149.816 322.57 151.244 323.284C154.102 324.713 157.423 323.541 158.921 320.576C159.719 318.965 159.719 318.965 158.35 318.019C155.759 316.35 152.824 317.14 151.002 319.937Z" fill="#484848"/>
<path d="M161.434 316.812C160.482 318.269 160.989 318.955 163.51 319.714C165.899 320.432 167.236 320.123 169.068 318.468C171.018 316.67 171.089 315.73 169.367 314.572C166.806 312.947 163.301 313.921 161.434 316.812Z" fill="#484848"/>
<path d="M300.94 231.405C304.313 234.662 307.469 235.575 309.765 234.06C311.579 232.862 311.59 232.153 309.826 230.448C306.791 227.542 303.929 227.072 300.929 229.053L299.485 230.006L300.94 231.405Z" fill="#484848"/>
<path d="M296.732 232.844C296.539 233.035 295.879 233.726 295.218 234.417C292.83 236.759 292.89 242.65 295.257 246.316C296.284 247.87 296.446 247.954 297.408 247.319C299.149 246.17 301.335 242.877 301.766 240.871C302.266 238.245 301.818 236.118 300.264 233.764C299.121 232.032 298.834 231.839 297.976 232.15C297.473 232.355 296.888 232.677 296.732 232.844Z" fill="#484848"/>
<path d="M235.993 275.75C235.191 282.911 238.098 287.879 245.315 291.722C246.449 292.313 246.561 292.239 247.105 291.051C248.09 288.998 248.133 284.633 247.256 282.661C245.904 279.728 243.378 276.868 240.096 274.635C238.374 273.476 236.857 272.629 236.635 272.775C236.45 272.898 236.163 274.235 235.993 275.75Z" fill="#484848"/>
<path d="M133.217 355.337C131.981 360.553 132.977 366.974 135.615 370.97C137.492 373.813 141.728 377.329 145.366 379.136L146.899 379.846L147.958 377.424C149.347 374.212 149.501 369.774 148.387 366.556C147.294 363.451 146.217 361.739 143.58 358.953C141.589 356.823 134.63 351.598 134.223 351.867C134.112 351.94 133.661 353.513 133.217 355.337Z" fill="#484848"/>
<path d="M383.732 191.539C381.639 195.535 382.27 200.921 385.378 205.629C386.58 207.45 386.742 207.534 387.314 206.71C388.452 205.13 389.579 202.409 389.974 200.107C390.588 196.769 389.952 193.872 387.957 191.172C386.021 188.561 385.26 188.617 383.732 191.539Z" fill="#484848"/>
<path d="M158.484 347.136C158.49 347.387 159.053 348.482 159.816 349.637C161.487 352.168 163.777 353.462 167.297 353.88C169.392 354.155 169.784 354.023 169.691 353.319C169.46 350.794 165.269 347.184 162.096 346.728C159.802 346.394 158.583 346.561 158.484 347.136Z" fill="#484848"/>
<path d="M131.303 384.977C130.559 386.105 129.718 387.489 129.479 388.094C129.024 389.096 129.112 389.229 130.356 390.066C132.211 391.264 136.459 392.222 138.712 392.01C141.356 391.667 144.595 389.082 145.916 386.17C146.535 384.932 146.917 383.659 146.815 383.344C146.713 383.029 145.44 382.147 143.982 381.388C139.151 378.903 134.404 380.251 131.303 384.977Z" fill="#484848"/>
<path d="M150.634 379.866C149.854 381.019 149.213 382.143 149.19 382.35C149.128 382.901 151.823 384.566 154.329 385.462C159.266 387.303 164.311 385.44 166.739 380.903C167.991 378.61 167.94 378.453 164.326 376.12C159.851 373.207 154.158 374.734 150.634 379.866Z" fill="#484848"/>
<path d="M132.334 399.345C132.487 399.818 133.344 401.357 134.223 402.689C135.748 404.998 136.035 405.191 138.689 405.99C142.044 406.964 146.173 406.533 146.046 405.214C145.821 402.939 142.17 399.101 139.229 398.109C135.964 396.949 131.899 397.719 132.334 399.345Z" fill="#484848"/>
<path d="M140.131 420.98C141.066 424.571 144.328 427.901 147.794 428.802C149.498 429.207 153.898 429.108 155.636 428.598C156.738 428.253 156.716 428.14 155.648 426.039C152.65 420.048 147.377 417.216 141.803 418.6L139.69 419.103L140.131 420.98Z" fill="#484848"/>
<path d="M188.733 407.13C187.24 409.136 187.363 409.565 189.794 410.83C193.063 412.561 195.923 412.14 199.087 409.604C201.607 407.621 202.602 406.39 202.25 405.858C201.752 405.103 197.343 403.741 195.483 403.821C193.001 403.929 190.1 405.334 188.733 407.13Z" fill="#484848"/>
<path d="M147.809 448.879C152.796 455.789 159.72 459.188 168.049 458.918C171.048 458.788 177.59 457.019 181.105 455.336C184.006 453.931 184.006 453.931 183.302 452.865C182.921 452.288 181.518 450.727 180.188 449.437C174.104 443.443 165.933 439.846 159.309 440.202C155.136 440.406 150.626 441.79 147.404 443.917L145.219 445.359L147.809 448.879Z" fill="#484848"/>
<path d="M143.393 470.541C143.127 470.781 142.236 471.688 141.361 472.457C139.834 473.848 139.789 473.941 140.727 475.362C141.255 476.162 142.628 477.678 143.812 478.746C149.097 483.61 156.777 483.323 162.93 477.985C164.939 476.276 165.074 475.996 164.458 475.063C162.2 471.644 154.747 467.764 150.723 467.87C149.276 467.933 143.775 469.588 143.839 469.928C143.832 469.997 143.631 470.257 143.393 470.541Z" fill="#484848"/>
<path d="M221.2 424.976C225.384 431.715 230.005 434.849 236.301 435.284C239.43 435.514 244.801 434.709 247.568 433.584L249.403 432.819L247.736 430.859C240.476 422.197 232.944 419.326 224.514 422.022C220.603 423.266 220.299 423.53 221.2 424.976Z" fill="#484848"/>
<path d="M144.277 492.659C145.024 497.012 147.248 499.817 150.999 501.23C153.107 502.006 158.264 502.81 158.214 502.333C158.176 501.147 156.972 498.115 155.778 496.226C153.733 493.048 151.134 491.448 147.681 491.049C144.456 490.755 143.982 491.004 144.277 492.659Z" fill="#484848"/>
<path d="M146.218 517.586C148.449 523.382 152.563 526.15 158.692 525.93C160.797 525.816 162.991 525.515 163.568 525.262C164.516 524.764 164.494 524.65 162.406 521.246C160.662 518.444 159.877 517.496 158.126 516.293C154.822 513.946 150.557 513.446 146.792 514.912C145.468 515.403 145.423 515.496 146.218 517.586Z" fill="#484848"/>
<path d="M212.38 486.277C211.682 486.992 211.762 487.194 212.952 488.513C217.168 493.127 222.103 494.077 226.584 491.119C229.139 489.432 229.097 488.886 226.224 486.064C223.968 483.855 221.233 482.854 218.64 483.355C216.467 483.769 213.5 485.154 212.38 486.277Z" fill="#484848"/>
<path d="M166.998 525.866C166.997 526.186 167.457 527.285 167.924 528.316C170.381 533.326 176.149 536.022 181.752 534.682C186.682 533.532 186.764 533.414 184.094 529.693C180.948 525.329 175.585 522.684 171.808 523.648C168.77 524.442 166.927 525.276 166.998 525.866Z" fill="#484848"/>
<path d="M158.01 532.629C154.593 537.118 155.144 545.362 159.488 554.036L160.636 556.339L162.784 554.921C170.042 550.129 171.844 542.308 167.841 533.345C166.088 529.401 165.141 528.368 163.729 528.727C162.139 529.138 159.058 531.236 158.01 532.629Z" fill="#484848"/>
<path d="M220.744 514.168C220.224 514.83 219.866 515.577 219.902 515.872C219.937 516.168 220.923 516.856 222.161 517.442C225.94 519.219 229.452 518.176 231.322 514.646C231.977 513.384 231.839 513.093 229.925 511.805C226.952 509.879 223.278 510.838 220.744 514.168Z" fill="#484848"/>
<path d="M216.531 533.721C215.333 535.532 214.909 539.319 215.497 542.948L215.963 545.829L217.434 545.559C219.363 545.178 222.622 543.027 223.581 541.501C225.032 539.268 225.039 533.077 223.64 530.877C223.288 530.344 219.054 531.099 218.001 531.921C217.668 532.141 217.029 532.945 216.531 533.721Z" fill="#484848"/>
<path d="M274.104 502.853C274.073 503.128 274.93 504.667 275.985 506.266C278.36 509.863 280.766 511.654 284.518 512.748C287.077 513.482 293.042 513.497 295.689 512.834L296.753 512.513L294.252 509.127C291.266 505.168 288.331 502.897 284.549 501.76C280.899 500.662 274.274 501.338 274.104 502.853Z" fill="#484848"/>
<path d="M248.994 533.842C251.691 537.928 255.752 539.327 260.36 537.688C263.718 536.492 264.045 536.021 262.665 534.254C258.952 529.435 254.44 528.078 249.66 530.341L247.381 531.399L248.994 533.842Z" fill="#484848"/>
<path d="M242.447 547.283C244.646 550.614 247.957 551.361 252.617 549.559C254.163 548.921 254.163 548.921 253.196 547.456C252.668 546.656 251.338 545.367 250.219 544.638C247.931 543.025 244.72 542.913 242.498 544.38L241.128 545.284L242.447 547.283Z" fill="#484848"/>
<path d="M226.719 556.965C226.835 557.463 227.841 558.584 228.944 559.45C230.356 560.622 231.344 560.99 232.754 560.952C235.029 560.853 238.179 559.665 238.087 558.961C237.945 557.78 234.797 555.267 232.703 554.672C230.941 554.178 230.04 554.263 228.478 555.039C226.842 555.863 226.523 556.265 226.719 556.965Z" fill="#484848"/>
<path d="M280.968 526.378C281.771 528.399 283.865 530.524 286.237 531.7C288.446 532.792 292.697 533.11 295.041 532.391L296.32 531.993L294.486 529.697C291.125 525.412 287.205 523.663 282.757 524.496C280.2 524.972 280.356 524.806 280.968 526.378Z" fill="#484848"/>
<path d="M323.053 503.058C323.277 505.652 324.435 508.776 326.165 511.397C329.361 516.237 334.922 518.942 342.4 519.235L346.054 519.373L345.773 517.9C345.335 515.384 342.755 509.946 340.941 507.763C337.294 503.284 332.07 500.93 326.384 501.177C324.664 501.229 323.179 501.316 323.068 501.389C322.994 501.438 323.012 502.191 323.053 503.058Z" fill="#484848"/>
<path d="M239.949 558.561C239.093 560.083 243.383 563.117 246.108 562.976C246.906 562.896 248.444 562.326 249.51 561.686C251.354 560.532 251.399 560.439 250.584 559.447C249.373 558.015 247.083 556.721 245.231 556.413C243.711 556.205 240.516 557.485 239.949 558.561Z" fill="#484848"/>
<path d="M237.385 562.167C234.604 566.171 234.649 569.138 237.578 574.219C239.928 578.342 240.577 578.68 242.049 576.56C245.067 572.272 244.008 565.191 239.823 561.833C238.757 560.942 238.232 561.034 237.385 562.167Z" fill="#484848"/>
<path d="M339.258 495.547C339.432 496.134 340.31 497.786 341.278 499.251C343.564 502.715 346.678 504.613 350.42 504.885C353.011 505.023 356.713 504.429 358.703 503.497C359.68 503.044 359.629 502.886 358.274 500.592C354.151 493.622 347.187 490.886 340.831 493.743C339.248 494.406 339.011 494.69 339.258 495.547Z" fill="#484848"/>
<path d="M330.686 529.519C331.146 532.149 333.439 535.864 335.419 537.171C338.039 538.885 345.475 540.161 345.916 538.977C346.013 538.721 345.672 537.48 345.191 536.267C342.703 530.002 338.517 526.964 332.735 527.146L330.254 527.254L330.686 529.519Z" fill="#484848"/>
<path d="M329.395 543.189C328.596 546.65 330.284 550.254 333.904 552.838C337.171 555.208 337.51 555.239 337.785 553.4C338.106 551.148 337.45 547.818 336.336 546.131C335.339 544.621 331.925 542.028 330.583 541.767C329.978 541.656 329.666 541.989 329.395 543.189Z" fill="#484848"/>
<path d="M313.5 555.277C313.377 556.378 315.939 559.533 317.479 560.175C319.114 560.88 322.635 560.979 323.635 560.319C324.413 559.805 322.47 556.943 320.328 555.551C317.907 553.898 313.67 553.762 313.5 555.277Z" fill="#484848"/>
<path d="M295.851 569.862C295.784 573.222 296.619 576.178 298.583 579.154C300.958 582.751 304.277 584.96 309.814 586.661C314.694 588.094 314.613 588.211 313.415 582.37C312.881 579.789 312.355 578.67 310.273 575.517C308.397 572.675 307.332 571.465 306.051 570.652C304.255 569.543 296.839 567.169 296.283 567.536C296.098 567.658 295.909 568.74 295.851 569.862Z" fill="#484848"/>
<path d="M263.56 595.772C262.748 597.201 262.497 600.364 262.956 602.994C263.267 604.511 263.355 604.644 264.152 604.563C264.64 604.497 265.95 603.823 267.061 603.09C269.513 601.407 270.343 599.201 269.753 595.892C269.516 594.646 269.263 593.538 269.175 593.404C268.911 593.005 265.704 593.464 264.927 593.977C264.586 594.266 263.947 595.07 263.56 595.772Z" fill="#484848"/>
<path d="M325.842 562.05C327.2 565.235 331.822 566.838 334.923 565.173C335.944 564.627 335.96 564.489 334.86 562.983C333.011 560.505 330.942 559.385 328.556 559.557C325.609 559.845 325.112 560.3 325.842 562.05Z" fill="#484848"/>
<path d="M319.42 566.417C318.73 568.595 319.397 572.746 320.831 575.561L321.869 577.618L323.989 575.835C326.369 573.882 327.003 572.507 326.944 569.357C326.924 567.394 325.006 562.475 324.18 562.191C323.981 562.131 322.96 562.678 321.923 563.362C320.552 564.267 319.84 565.12 319.42 566.417Z" fill="#484848"/>
<path d="M289.287 590.201C288.804 593.9 289.83 596.985 292.534 599.791C294.503 601.807 298.425 604.446 300.129 604.852C301.161 605.127 301.258 604.871 301.405 602.033C301.594 597.89 300.276 594.041 297.741 591.57C295.706 589.535 293.49 588.192 291.226 587.582L289.663 587.147L289.287 590.201Z" fill="#484848"/>
<path d="M269.142 615.745C270.22 617.137 271.588 618.402 272.464 618.844C274.549 619.827 278.146 619.557 280.935 618.225L283.251 617.142L282.255 615.632C280.194 612.593 275.517 610.26 272.481 610.735C271.712 610.859 270.269 611.493 269.233 612.178L267.381 613.4L269.142 615.745Z" fill="#484848"/>
<path d="M285.017 616.997C285.123 617.883 288.158 620.789 289.72 621.544C292.232 622.691 295.431 622.301 298.282 620.418L300.801 618.756L299.757 617.659C295.194 613.083 291.307 612.27 287.197 614.984C285.975 615.791 285.018 616.677 285.017 616.997Z" fill="#484848"/>
<path d="M280.929 622.565C279.323 624.965 278.958 627.31 279.533 630.438C280.515 635.146 285.328 643 286.698 642.095C287.883 641.313 290.059 637.199 290.498 634.804C291.21 631.21 290.355 627.821 287.833 624.001C285.048 619.782 284.481 619.327 283.037 620.281C282.4 620.765 281.465 621.765 280.929 622.565Z" fill="#484848"/>
</g>
<defs>
<clipPath id="clip0_83_5">
<rect width="568" height="513" fill="white" transform="translate(0 312.947) rotate(-33.4331)"/>
</clipPath>
</defs>
</svg>
