<?xml version="1.0" standalone="no"?>
<!DOCTYPE svg PUBLIC "-//W3C//DTD SVG 20010904//EN"
 "http://www.w3.org/TR/2001/REC-SVG-20010904/DTD/svg10.dtd">
<svg version="1.0" xmlns="http://www.w3.org/2000/svg"
 width="1280.000000pt" height="1280.000000pt" viewBox="0 0 1280.000000 1280.000000"
 preserveAspectRatio="xMidYMid meet">
<metadata>
Created by potrace 1.15, written by Peter Selinger 2001-2017
</metadata>
<g transform="translate(0.000000,1280.000000) scale(0.100000,-0.100000)"
fill="#000000" stroke="none">
<path d="M6377 11773 c-4 -207 -7 -444 -8 -527 -1 -155 -6 -159 -29 -21 -31
177 -113 357 -209 458 -93 98 -268 170 -516 211 -102 17 -345 39 -352 32 -7
-7 163 -254 260 -379 184 -236 322 -365 460 -430 88 -42 212 -82 283 -92 49
-6 52 -8 74 -55 l23 -49 -8 -663 c-4 -365 -10 -776 -14 -915 l-6 -252 -66 50
-66 49 -6 64 c-13 136 -95 403 -172 555 -98 195 -253 356 -553 570 -63 45
-119 81 -124 81 -18 0 -1 -233 27 -369 45 -216 134 -463 205 -566 72 -105 179
-199 290 -255 63 -32 174 -68 230 -76 40 -5 61 -17 123 -69 41 -34 84 -69 96
-77 l20 -14 -8 -535 c-4 -294 -6 -537 -4 -541 2 -5 31 -8 64 -8 l59 0 0 103
c0 56 -7 531 -15 1056 -11 758 -11 957 -1 965 6 6 28 32 48 57 l36 45 89 -19
c65 -14 134 -19 263 -20 162 -2 179 0 233 21 194 79 390 288 530 567 41 82 77
162 77 171 0 8 -249 3 -340 -6 -326 -34 -541 -104 -654 -213 -46 -44 -70 -83
-156 -252 -56 -110 -110 -209 -121 -220 -19 -19 -19 -18 -19 85 -1 58 -3 245
-6 415 -3 171 -9 563 -13 873 -5 310 -11 565 -13 568 -3 2 -8 -165 -11 -373z"/>
<path d="M10110 11567 c65 -130 119 -283 147 -422 27 -138 25 -453 -5 -592
-99 -458 -386 -835 -787 -1035 -157 -79 -317 -123 -655 -179 -265 -44 -260
-44 -260 -26 0 43 22 84 53 99 52 25 223 158 320 248 242 227 349 442 441 888
29 138 32 172 13 172 -23 0 -179 -84 -274 -148 -124 -84 -249 -189 -363 -308
-137 -141 -189 -234 -225 -398 -20 -92 -17 -300 7 -376 13 -41 12 -51 -9 -124
-12 -44 -24 -80 -25 -81 -2 0 -50 -11 -108 -24 -445 -97 -757 -313 -1022 -706
-86 -128 -223 -398 -281 -555 -20 -52 -38 -102 -42 -111 -5 -14 8 -21 65 -38
40 -12 73 -21 74 -19 1 2 22 57 45 123 51 142 122 304 174 397 32 57 43 69 74
77 34 10 39 8 73 -23 96 -87 260 -177 377 -206 159 -41 445 -48 763 -19 150
13 190 20 190 31 0 20 -248 256 -350 332 -121 91 -258 161 -348 178 -150 28
-402 -46 -610 -179 -30 -19 -59 -32 -64 -31 -6 2 17 40 50 84 126 167 258 290
416 389 178 111 386 175 821 255 434 80 641 151 861 298 104 70 241 195 315
288 36 46 54 62 60 53 6 -11 21 -10 76 3 42 11 129 19 228 22 188 6 288 26
411 86 155 75 266 235 363 526 54 160 94 334 77 334 -9 0 -219 -96 -328 -151
-223 -112 -418 -239 -513 -334 -79 -78 -188 -264 -214 -362 -8 -27 -19 -44
-32 -48 -31 -10 -33 0 -6 42 14 22 45 80 70 129 180 358 210 777 85 1174 -30
97 -132 315 -168 360 -11 14 7 -28 40 -93z"/>
<path d="M2697 11627 c-59 -91 -137 -279 -171 -414 -37 -147 -46 -227 -46
-391 0 -294 75 -570 218 -805 38 -62 39 -68 20 -65 -24 3 -27 8 -62 104 -80
216 -231 373 -521 541 -137 80 -512 260 -521 251 -4 -5 63 -262 91 -343 42
-124 138 -314 192 -380 63 -77 134 -126 239 -164 112 -41 241 -61 389 -61 76
0 143 -6 180 -15 32 -9 64 -14 71 -11 6 2 42 -30 79 -72 130 -149 292 -276
462 -361 173 -86 321 -129 698 -202 344 -67 384 -76 510 -116 189 -61 353
-152 486 -270 122 -110 271 -285 251 -297 -4 -2 -32 11 -62 31 -172 111 -382
183 -535 184 -142 1 -245 -44 -437 -188 -95 -72 -338 -304 -338 -323 0 -14 26
-18 230 -36 238 -20 572 -15 690 11 131 29 275 101 387 194 62 51 68 53 101
45 30 -8 43 -21 78 -79 55 -89 140 -276 194 -430 24 -66 46 -123 49 -127 4 -4
36 0 71 10 54 15 64 21 62 37 -7 45 -119 309 -182 432 -121 234 -237 392 -411
557 -209 199 -413 305 -740 384 l-112 28 -22 75 c-19 68 -20 79 -8 124 23 85
28 278 9 368 -35 170 -100 282 -256 438 -163 164 -350 303 -522 390 -109 55
-109 55 -91 -38 61 -337 152 -596 265 -760 95 -138 319 -346 480 -446 59 -37
70 -48 82 -87 7 -25 12 -48 10 -51 -4 -6 -361 50 -509 81 -236 49 -440 131
-603 242 -42 29 -129 104 -192 168 -216 215 -346 456 -412 764 -32 148 -32
456 0 603 29 135 72 261 132 389 49 104 55 124 27 81z"/>
<path d="M1206 8895 c15 -141 83 -348 161 -495 71 -132 139 -225 252 -342
l104 -108 -52 0 c-48 0 -55 4 -124 61 -164 139 -416 279 -571 319 -127 32
-320 44 -518 30 -180 -12 -228 -18 -228 -30 0 -15 120 -138 203 -207 159 -132
380 -268 511 -313 180 -62 404 -38 584 60 50 28 68 32 154 35 l96 4 97 -65
c223 -149 489 -246 792 -290 155 -22 453 -20 793 6 360 28 667 24 825 -10 137
-29 260 -72 379 -131 55 -27 100 -49 101 -49 1 0 25 17 53 39 61 45 64 42 -66
106 -261 130 -542 184 -886 171 -94 -4 -188 -9 -211 -12 l-40 -6 -32 68 c-18
39 -37 102 -43 144 -32 218 -116 421 -216 524 -104 107 -300 182 -574 220
-161 22 -300 31 -300 19 0 -12 119 -187 214 -313 137 -183 258 -317 363 -401
104 -83 290 -160 444 -184 28 -4 39 -12 53 -41 9 -20 16 -38 14 -39 -2 -2 -97
-13 -213 -25 -247 -27 -559 -31 -705 -11 -178 25 -378 82 -535 151 -99 44
-247 135 -255 156 -5 13 -21 24 -40 28 -48 9 -259 224 -339 345 -107 162 -179
335 -230 551 -14 62 -18 71 -15 35z"/>
<path d="M11566 8857 c-58 -273 -191 -532 -374 -728 -88 -93 -180 -169 -205
-169 -10 0 -17 -6 -17 -14 0 -19 -120 -94 -250 -154 -275 -130 -603 -192 -925
-177 -137 6 -525 42 -532 49 -2 2 4 20 13 39 15 32 23 37 63 42 63 8 203 51
279 86 132 60 279 192 448 404 116 146 284 388 284 410 0 10 -177 -2 -310 -21
-278 -40 -484 -121 -577 -227 -94 -108 -176 -314 -203 -510 -7 -52 -23 -107
-43 -150 l-32 -68 -59 5 c-349 34 -637 9 -888 -74 -105 -35 -321 -137 -314
-148 2 -4 28 -24 58 -44 l53 -37 100 50 c120 59 247 102 381 130 160 33 470
36 824 9 345 -26 639 -28 795 -6 301 45 572 146 797 297 l88 59 98 -4 c87 -3
104 -7 153 -34 130 -74 315 -111 455 -91 43 6 109 21 145 33 82 29 253 125
379 214 95 67 320 277 320 298 0 15 -45 22 -239 35 -248 17 -455 -4 -617 -64
-137 -51 -410 -223 -499 -315 -27 -28 -37 -31 -87 -32 l-56 0 87 88 c225 226
363 494 417 805 9 49 14 91 11 93 -2 2 -11 -33 -21 -79z"/>
<path d="M6095 7695 c-430 -61 -824 -225 -1170 -489 -108 -82 -300 -270 -389
-381 -187 -230 -326 -485 -420 -767 -253 -757 -115 -1593 369 -2233 439 -581
1114 -933 1839 -961 671 -26 1297 212 1779 676 792 763 973 1967 440 2925
-242 435 -598 773 -1048 995 -226 112 -442 182 -695 226 -132 23 -566 28 -705
9z m654 -320 c377 -53 750 -215 1051 -455 97 -78 264 -245 341 -340 221 -275
377 -624 445 -995 22 -120 30 -478 15 -616 -84 -734 -534 -1373 -1199 -1704
-194 -96 -395 -161 -627 -202 -142 -24 -538 -24 -680 0 -470 83 -871 285
-1190 602 -325 322 -529 710 -616 1169 -30 156 -37 493 -15 662 134 1016 942
1795 1967 1894 125 12 367 5 508 -15z"/>
<path d="M4230 7234 c-169 -20 -221 -28 -335 -51 -71 -14 -132 -27 -134 -29
-13 -12 115 -119 239 -201 70 -46 240 -143 252 -143 3 0 34 39 69 88 65 89
172 215 228 268 39 37 39 50 -1 58 -45 8 -275 15 -318 10z"/>
<path d="M8286 7229 c-38 -5 -72 -11 -74 -14 -3 -2 34 -45 80 -94 47 -49 120
-136 163 -193 42 -57 81 -107 85 -112 11 -11 180 79 295 158 103 70 210 166
198 177 -10 9 -180 43 -318 64 -129 19 -341 27 -429 14z"/>
<path d="M10823 7089 c-135 -12 -291 -74 -420 -165 -46 -33 -71 -44 -100 -45
-21 0 -72 -6 -113 -12 l-75 -12 -96 43 c-53 23 -140 54 -195 69 -91 24 -115
27 -294 27 -155 1 -213 -3 -280 -18 -192 -42 -389 -121 -558 -226 l-82 -51 27
-47 c14 -26 30 -51 34 -56 4 -5 43 14 86 41 43 27 108 67 145 87 l67 37 15
-30 c9 -16 16 -41 16 -54 0 -64 53 -357 72 -397 65 -138 338 -315 662 -429
l89 -31 -7 76 c-33 362 -177 645 -378 743 -54 25 -173 57 -292 76 -91 15 -108
25 -104 60 2 15 25 26 99 51 169 57 245 69 434 68 150 -1 181 -4 268 -27 414
-111 764 -456 940 -928 83 -222 130 -441 148 -697 10 -149 6 -298 -16 -507 -4
-42 -3 -45 5 -20 26 80 42 311 36 515 -3 113 -10 228 -15 255 -5 28 -7 52 -5
54 10 11 50 -85 100 -239 91 -286 173 -473 256 -585 51 -70 159 -155 272 -216
86 -46 287 -130 297 -123 3 2 -4 47 -16 101 -82 361 -175 592 -285 704 -92 93
-238 180 -425 249 -97 37 -101 39 -130 89 -25 42 -34 50 -52 46 -19 -5 -23 1
-33 52 -83 416 -248 751 -490 993 -53 52 -128 118 -168 145 -39 28 -71 53 -72
56 0 3 30 10 68 16 67 10 67 10 107 -22 142 -114 464 -264 670 -311 116 -27
362 -25 560 5 196 29 350 63 350 78 0 20 -134 130 -260 214 -170 114 -435 240
-585 280 -65 17 -194 25 -277 18z"/>
<path d="M1695 7070 c-144 -37 -404 -159 -562 -262 -143 -93 -295 -219 -281
-234 21 -21 342 -78 533 -94 138 -12 266 -9 368 10 186 35 560 209 699 325 24
20 32 21 84 13 32 -5 60 -10 62 -12 1 -2 -26 -24 -62 -50 -262 -187 -474 -493
-590 -855 -29 -90 -86 -319 -86 -347 0 -3 -9 -3 -20 1 -15 5 -24 -3 -44 -43
-23 -46 -29 -50 -103 -77 -287 -103 -468 -234 -555 -400 -66 -129 -129 -318
-183 -560 -13 -55 -21 -103 -19 -107 7 -11 135 37 244 91 221 109 317 197 407
376 66 130 141 325 193 500 18 61 41 124 52 140 l19 30 -5 -40 c-3 -22 -8
-130 -12 -240 -5 -157 -3 -230 10 -340 17 -139 42 -270 31 -160 -21 203 -25
350 -15 493 23 328 88 592 211 851 143 301 365 546 621 684 285 155 605 179
938 71 130 -42 133 -44 125 -77 -6 -22 -14 -27 -53 -32 -123 -17 -282 -58
-349 -91 -129 -62 -238 -207 -303 -402 -43 -130 -84 -392 -64 -405 13 -7 200
65 333 129 209 100 366 225 411 326 10 24 31 122 45 218 32 216 31 211 48 234
13 18 15 17 68 -9 30 -15 91 -52 137 -81 45 -30 86 -54 90 -54 7 0 62 92 62
103 0 9 -155 100 -249 147 -94 47 -278 110 -391 135 -105 23 -351 31 -459 15
-102 -15 -253 -61 -335 -102 l-59 -30 -116 13 c-115 12 -116 12 -197 66 -169
111 -306 153 -494 152 -78 0 -137 -6 -185 -19z"/>
<path d="M3823 5015 c7 -216 22 -329 73 -534 72 -291 182 -542 349 -796 343
-522 876 -907 1475 -1066 70 -19 124 -39 139 -52 23 -22 23 -25 18 -152 -7
-161 -68 -615 -107 -791 -59 -264 -136 -521 -227 -756 -38 -98 -55 -128 -101
-179 -30 -33 -78 -76 -106 -95 l-51 -34 1083 0 1083 0 -78 89 c-48 54 -85 107
-97 137 -151 398 -228 667 -292 1024 -35 192 -63 433 -71 591 l-6 136 44 30
c24 17 69 36 99 43 86 20 297 95 409 144 806 357 1384 1136 1495 2016 20 158
29 368 17 405 l-9 30 -1 -35 c-2 -68 -30 -247 -56 -365 -106 -474 -339 -898
-685 -1246 -288 -290 -607 -489 -1002 -624 -283 -97 -577 -141 -893 -132 -509
15 -950 154 -1365 432 -317 213 -556 464 -774 813 -42 67 -140 267 -180 368
-78 198 -133 417 -162 644 -9 74 -19 137 -21 140 -3 3 -3 -80 0 -185z"/>
</g>
</svg>
